<svg version="1.1" id="Layer_1" xmlns="http://www.w3.org/2000/svg" xmlns:xlink="http://www.w3.org/1999/xlink" x="0px" y="0px"
	 width="100%" viewBox="0 0 412 125" enable-background="new 0 0 412 125" xml:space="preserve">
<path fill="#FBFBFB" opacity="1.000000" stroke="none" 
	d="
M273.000000,126.000000 
	C182.000015,126.000000 91.500023,126.000000 1.000024,126.000000 
	C1.000016,84.333351 1.000016,42.666698 1.000008,1.000036 
	C138.333298,1.000024 275.666595,1.000024 412.999939,1.000012 
	C412.999939,42.666630 412.999939,84.333260 412.999969,125.999939 
	C366.500000,126.000000 320.000000,126.000000 273.000000,126.000000 
M283.703278,79.724098 
	C297.349274,89.620461 309.807495,87.205330 318.400177,72.576958 
	C320.800049,68.491386 322.697479,63.835564 323.619843,59.201378 
	C330.152222,26.380791 306.039459,5.285867 279.052582,12.841806 
	C270.049744,12.907849 261.046906,12.973892 251.328217,12.801493 
	C249.383591,12.801493 247.438980,12.801493 245.494354,12.801493 
	C245.501038,13.068868 245.507706,13.336243 245.514389,13.603618 
	C247.658478,14.111912 249.802582,14.620206 252.307007,15.803297 
	C252.885422,17.797487 253.959885,19.789761 253.967590,21.786160 
	C254.077179,50.156452 254.091522,78.527542 253.949753,106.897545 
	C253.938293,109.192009 252.616531,111.479912 251.140350,113.913544 
	C249.216675,114.369751 247.292999,114.825958 245.369324,115.282166 
	C245.396545,115.477249 245.423752,115.672333 245.450958,115.867416 
	C247.661041,115.867416 249.871109,115.867416 252.886200,116.051994 
	C258.895325,115.990738 264.904449,115.929474 271.648132,116.086868 
	C273.653259,116.086868 275.658356,116.086868 277.663483,116.086868 
	C277.669250,115.798668 277.675018,115.510468 277.680786,115.222267 
	C275.498749,114.708656 273.316681,114.195045 270.776428,113.030579 
	C270.197723,110.873016 269.138245,108.720184 269.116943,106.557129 
	C268.957306,90.355347 269.002747,74.151543 269.629211,58.345989 
	C273.231781,71.887894 277.290558,85.330452 285.035767,97.129753 
	C288.721558,102.744789 293.364319,107.943871 298.395569,112.404152 
	C303.476318,116.908272 309.999054,118.139458 316.698395,115.819000 
	C321.473663,114.164986 324.468170,110.798592 325.271637,105.707581 
	C325.983704,101.195389 325.392761,97.059082 321.773651,93.245613 
	C318.878998,103.974434 312.134460,108.551933 303.770203,104.905731 
	C292.883972,100.160133 286.948700,90.716820 283.703278,79.724098 
M201.246460,78.707886 
	C201.261093,79.391754 200.986938,80.417374 201.332611,80.709473 
	C209.828766,87.888794 220.889099,87.634338 228.897339,79.806152 
	C238.637436,70.285034 241.917374,58.216381 240.684738,45.093403 
	C238.383987,20.598778 218.761292,6.439335 196.037720,12.827458 
	C186.707886,12.894228 177.378036,12.960998 167.342880,12.797757 
	C165.428650,12.797757 163.514420,12.797757 161.600189,12.797757 
	C161.583069,13.065448 161.565933,13.333138 161.548813,13.600828 
	C163.692230,14.085137 165.835663,14.569447 168.353775,15.733194 
	C168.951126,17.723412 170.060791,19.711588 170.068726,21.704155 
	C170.182083,50.132996 170.197113,78.562691 170.051361,106.991234 
	C170.039612,109.280540 168.675537,111.562927 167.167969,113.975891 
	C163.776825,114.019493 160.385696,114.063103 156.439529,113.696854 
	C154.292450,109.904045 151.332062,106.351532 150.129044,102.279800 
	C141.742142,73.893051 133.749771,45.389900 125.498001,16.962656 
	C125.042236,15.392565 123.454910,13.018904 122.304100,12.965576 
	C114.601768,12.608662 106.874954,12.780105 98.074760,12.780105 
	C101.208878,16.635290 103.416801,19.722988 106.017387,22.434031 
	C108.148933,24.656130 108.399185,26.772530 107.573280,29.641939 
	C100.765709,53.292950 94.083672,76.980125 87.383339,100.661934 
	C85.600449,106.963402 84.687035,113.861946 76.612862,115.620888 
	C83.630882,115.620888 90.648903,115.620888 99.084000,115.620888 
	C90.212616,112.706848 89.361832,111.100609 91.519630,103.486130 
	C92.773689,99.060806 94.057045,94.643791 95.030785,91.254761 
	C101.127449,94.232216 106.849701,98.058411 113.149803,99.832497 
	C120.399734,101.874046 125.976944,97.246071 130.652328,91.245529 
	C132.017761,96.082382 132.980286,100.137764 134.322266,104.063431 
	C135.653625,107.958023 135.235214,111.229912 131.222824,114.010666 
	C129.831299,114.385277 128.439774,114.759888 127.048241,115.134491 
	C127.119637,115.379929 127.191025,115.625374 127.262421,115.870811 
	C128.877411,115.870811 130.492386,115.870811 133.009918,116.059669 
	C140.970490,115.996407 148.931061,115.933151 157.661911,116.074699 
	C161.136627,116.009857 164.611359,115.945007 168.926758,116.065208 
	C174.972702,116.065208 181.018646,116.065208 187.457672,116.065208 
	C186.500595,112.635162 185.314346,110.317986 185.290955,107.989120 
	C185.127441,91.713371 185.204453,75.435219 185.204453,59.157829 
	C186.265549,60.333130 186.636749,61.690788 187.110809,63.011520 
	C190.087311,71.303772 192.244965,80.030807 196.309250,87.753105 
	C200.588516,95.883858 206.088074,103.592171 212.193237,110.474915 
	C217.391022,116.334724 224.826981,118.435844 232.799210,115.837570 
	C242.081451,112.812347 244.922440,100.622932 237.970306,93.935371 
	C234.794327,103.294792 230.415268,107.110725 222.940521,105.606415 
	C219.236923,104.861046 215.136703,102.892090 212.610947,100.178337 
	C207.895508,95.111954 203.914261,89.276047 200.220749,83.388191 
	C198.794098,81.113953 198.981522,77.827202 199.030350,75.105232 
	C200.020889,76.291931 201.011414,77.478638 201.246460,78.707886 
M17.503401,69.499741 
	C17.501181,80.493561 17.552376,91.487724 17.479715,102.481079 
	C17.422373,111.156479 16.155287,112.399261 7.505682,113.389114 
	C6.297967,113.527328 5.181938,114.466705 4.023466,115.035217 
	C5.177825,115.567856 6.328350,116.553596 7.487135,116.563408 
	C19.812534,116.667725 32.157223,117.011116 44.458317,116.449753 
	C51.013103,116.150612 57.767487,114.999420 63.946693,112.842873 
	C74.973503,108.994507 80.506790,99.546890 79.910118,87.827965 
	C79.373405,77.286667 72.723389,69.121567 61.911472,65.779007 
	C59.964424,65.177063 57.979954,64.696159 54.922043,63.861752 
	C57.545803,62.899731 59.065434,62.395557 60.544151,61.791267 
	C67.240173,59.054886 71.956146,54.426331 74.027405,47.379471 
	C78.738289,31.351995 70.415154,17.005114 53.585056,15.241602 
	C37.921940,13.600370 22.007133,14.345074 6.201914,14.128137 
	C5.482859,14.118267 4.751807,14.982430 4.026342,15.439503 
	C4.949356,16.029943 5.819746,17.019234 6.803535,17.149033 
	C16.471941,18.424654 17.456356,19.417667 17.487749,29.021925 
	C17.530760,42.181072 17.501678,55.340450 17.503401,69.499741 
M392.856354,81.622757 
	C386.607697,59.895409 380.385254,38.160400 374.047577,16.459047 
	C373.651825,15.103836 372.389404,12.991350 371.468689,12.958549 
	C363.608978,12.678551 355.735016,12.798152 346.756165,12.798152 
	C349.657227,16.337275 351.498871,19.126202 353.872620,21.346132 
	C357.021271,24.290678 357.032501,27.303135 355.904633,31.186064 
	C349.412842,53.535225 343.255371,75.981583 336.746429,98.325623 
	C334.758698,105.149132 334.674927,113.493462 325.442444,115.627693 
	C332.487305,115.627693 339.532135,115.627693 346.576996,115.627693 
	C342.390900,114.269119 338.298676,112.773308 339.276093,107.566261 
	C340.383575,101.666214 342.429535,95.942322 343.749237,91.268723 
	C349.999603,94.330368 355.595215,98.073997 361.757202,99.829155 
	C369.029663,101.900627 374.609894,97.309952 379.364960,91.295609 
	C380.935608,96.775040 382.365570,101.351028 383.542511,105.991196 
	C384.622040,110.247353 382.917999,113.104874 378.662201,114.350815 
	C377.656616,114.645203 376.634888,114.884422 375.620605,115.149010 
	C375.669739,115.293442 375.718903,115.437874 375.768066,115.582306 
	C387.073364,115.582306 398.378662,115.582306 409.683960,115.582306 
	C402.837860,114.542458 400.683624,109.616325 399.144958,104.010056 
	C397.164978,96.795868 395.071442,89.612831 392.856354,81.622757 
M187.879700,114.035652 
	C188.290314,116.535484 189.085602,116.704018 193.892456,115.099754 
	C191.979645,114.750801 190.413147,114.465027 187.879700,114.035652 
z"/>
<path fill="#1C1C1B" opacity="1.000000" stroke="none" 
	d="
M17.503448,68.999741 
	C17.501678,55.340450 17.530760,42.181072 17.487749,29.021925 
	C17.456356,19.417667 16.471941,18.424654 6.803535,17.149033 
	C5.819746,17.019234 4.949356,16.029943 4.026342,15.439503 
	C4.751807,14.982430 5.482859,14.118267 6.201914,14.128137 
	C22.007133,14.345074 37.921940,13.600370 53.585056,15.241602 
	C70.415154,17.005114 78.738289,31.351995 74.027405,47.379471 
	C71.956146,54.426331 67.240173,59.054886 60.544151,61.791267 
	C59.065434,62.395557 57.545803,62.899731 54.922043,63.861752 
	C57.979954,64.696159 59.964424,65.177063 61.911472,65.779007 
	C72.723389,69.121567 79.373405,77.286667 79.910118,87.827965 
	C80.506790,99.546890 74.973503,108.994507 63.946693,112.842873 
	C57.767487,114.999420 51.013103,116.150612 44.458317,116.449753 
	C32.157223,117.011116 19.812534,116.667725 7.487135,116.563408 
	C6.328350,116.553596 5.177825,115.567856 4.023466,115.035217 
	C5.181938,114.466705 6.297967,113.527328 7.505682,113.389114 
	C16.155287,112.399261 17.422373,111.156479 17.479715,102.481079 
	C17.552376,91.487724 17.501181,80.493561 17.503448,68.999741 
M65.228737,93.153870 
	C67.126862,73.907700 53.461254,63.277931 32.337521,67.573486 
	C32.203541,67.861908 31.953703,68.149765 31.952286,68.438835 
	C31.897690,79.579117 31.854298,90.719490 31.834614,101.859901 
	C31.818953,110.723297 32.395992,111.284966 41.434490,111.205414 
	C43.261684,111.189331 45.100464,111.133034 46.911957,110.913887 
	C57.146503,109.675735 63.030754,104.192635 65.228737,93.153870 
M31.828943,43.498981 
	C31.828943,49.261284 31.828943,55.023582 31.828943,60.928722 
	C41.194721,61.811745 49.903698,62.605553 56.398800,54.867104 
	C61.945251,48.258904 62.676174,35.566998 58.134731,27.927462 
	C54.058186,21.069950 45.256905,17.988609 35.649506,19.776274 
	C32.747631,20.316231 31.757538,21.716818 31.803438,24.506840 
	C31.902084,30.502954 31.830709,36.501865 31.828943,43.498981 
z"/>
<path fill="#181817" opacity="1.000000" stroke="none" 
	d="
M167.939880,113.848526 
	C168.675537,111.562927 170.039612,109.280540 170.051361,106.991234 
	C170.197113,78.562691 170.182083,50.132996 170.068726,21.704155 
	C170.060791,19.711588 168.951126,17.723412 168.191330,14.887239 
	C168.035324,13.703444 168.041763,13.365605 168.048187,13.027767 
	C177.378036,12.960998 186.707886,12.894228 196.498566,13.432138 
	C196.974106,14.375387 196.988800,14.713956 196.747772,15.276545 
	C189.040543,18.634928 186.850525,25.246685 186.036926,32.318897 
	C184.209549,48.202885 188.342773,62.504662 198.433594,75.001740 
	C198.981522,77.827202 198.794098,81.113953 200.220749,83.388191 
	C203.914261,89.276047 207.895508,95.111954 212.610947,100.178337 
	C215.136703,102.892090 219.236923,104.861046 222.940521,105.606415 
	C230.415268,107.110725 234.794327,103.294792 237.970306,93.935371 
	C244.922440,100.622932 242.081451,112.812347 232.799210,115.837570 
	C224.826981,118.435844 217.391022,116.334724 212.193237,110.474915 
	C206.088074,103.592171 200.588516,95.883858 196.309250,87.753105 
	C192.244965,80.030807 190.087311,71.303772 187.110809,63.011520 
	C186.636749,61.690788 186.265549,60.333130 185.204453,59.157829 
	C185.204453,75.435219 185.127441,91.713371 185.290955,107.989120 
	C185.314346,110.317986 186.500595,112.635162 187.457672,116.065208 
	C181.018646,116.065208 174.972702,116.065208 168.476715,115.464279 
	C167.997742,114.525078 167.968811,114.186798 167.939880,113.848526 
z"/>
<path fill="#1C1C1B" opacity="1.000000" stroke="none" 
	d="
M392.941589,82.019569 
	C395.071442,89.612831 397.164978,96.795868 399.144958,104.010056 
	C400.683624,109.616325 402.837860,114.542458 409.683960,115.582306 
	C398.378662,115.582306 387.073364,115.582306 375.768066,115.582306 
	C375.718903,115.437874 375.669739,115.293442 375.620605,115.149010 
	C376.634888,114.884422 377.656616,114.645203 378.662201,114.350815 
	C382.917999,113.104874 384.622040,110.247353 383.542511,105.991196 
	C382.365570,101.351028 380.935608,96.775040 379.364960,91.295609 
	C374.609894,97.309952 369.029663,101.900627 361.757202,99.829155 
	C355.595215,98.073997 349.999603,94.330368 343.749237,91.268723 
	C342.429535,95.942322 340.383575,101.666214 339.276093,107.566261 
	C338.298676,112.773308 342.390900,114.269119 346.576996,115.627693 
	C339.532135,115.627693 332.487305,115.627693 325.442444,115.627693 
	C334.674927,113.493462 334.758698,105.149132 336.746429,98.325623 
	C343.255371,75.981583 349.412842,53.535225 355.904633,31.186064 
	C357.032501,27.303135 357.021271,24.290678 353.872620,21.346132 
	C351.498871,19.126202 349.657227,16.337275 346.756165,12.798152 
	C355.735016,12.798152 363.608978,12.678551 371.468689,12.958549 
	C372.389404,12.991350 373.651825,15.103836 374.047577,16.459047 
	C380.385254,38.160400 386.607697,59.895409 392.941589,82.019569 
M378.137817,67.487282 
	C375.483948,53.749310 370.532471,41.032360 361.717468,28.901846 
	C356.912750,45.718742 352.461456,61.370029 347.965973,77.008614 
	C344.805328,88.003609 345.034485,88.553909 355.792603,92.945526 
	C357.321381,93.569603 358.947021,94.003464 360.565002,94.353737 
	C367.758179,95.910919 374.132812,93.331078 376.269012,86.377426 
	C378.012878,80.700912 377.670044,74.383362 378.137817,67.487282 
z"/>
<path fill="#1C1C1B" opacity="1.000000" stroke="none" 
	d="
M131.997681,113.947060 
	C135.235214,111.229912 135.653625,107.958023 134.322266,104.063431 
	C132.980286,100.137764 132.017761,96.082382 130.652328,91.245529 
	C125.976944,97.246071 120.399734,101.874046 113.149803,99.832497 
	C106.849701,98.058411 101.127449,94.232216 95.030785,91.254761 
	C94.057045,94.643791 92.773689,99.060806 91.519630,103.486130 
	C89.361832,111.100609 90.212616,112.706848 99.084000,115.620888 
	C90.648903,115.620888 83.630882,115.620888 76.612862,115.620888 
	C84.687035,113.861946 85.600449,106.963402 87.383339,100.661934 
	C94.083672,76.980125 100.765709,53.292950 107.573280,29.641939 
	C108.399185,26.772530 108.148933,24.656130 106.017387,22.434031 
	C103.416801,19.722988 101.208878,16.635290 98.074760,12.780105 
	C106.874954,12.780105 114.601768,12.608662 122.304100,12.965576 
	C123.454910,13.018904 125.042236,15.392565 125.498001,16.962656 
	C133.749771,45.389900 141.742142,73.893051 150.129044,102.279800 
	C151.332062,106.351532 154.292450,109.904045 156.688477,114.342407 
	C156.922150,115.281944 156.906891,115.575920 156.891632,115.869888 
	C148.931061,115.933151 140.970490,115.996407 132.533051,115.484192 
	C132.036682,114.588165 132.017181,114.267609 131.997681,113.947060 
M128.196106,85.426270 
	C131.287781,77.403534 130.178360,69.414658 128.091125,61.400738 
	C125.113991,49.970184 120.597023,39.290890 113.174080,29.120945 
	C112.582970,30.836714 112.224106,31.744350 111.955544,32.677963 
	C107.680206,47.540253 103.427155,62.408958 99.146324,77.269661 
	C96.148338,87.677010 96.612854,88.640251 106.901749,92.902779 
	C116.563278,96.905403 123.153732,94.792961 128.196106,85.426270 
z"/>
<path fill="#FCFCFC" opacity="1.000000" stroke="none" 
	d="
M198.731964,75.053482 
	C188.342773,62.504662 184.209549,48.202885 186.036926,32.318897 
	C186.850525,25.246685 189.040543,18.634928 197.164230,15.311226 
	C203.906998,14.458655 208.383438,17.462955 212.231766,21.609840 
	C219.489288,29.430408 223.659180,38.982445 224.526016,49.345928 
	C225.159729,56.922230 224.535248,65.001587 222.491608,72.302483 
	C219.983582,81.262337 212.766754,83.461357 204.295929,79.547508 
	C203.553833,79.204628 202.767654,78.957130 202.001953,78.665337 
	C201.011414,77.478638 200.020889,76.291931 198.731964,75.053482 
z"/>
<path fill="#141413" opacity="1.000000" stroke="none" 
	d="
M251.903656,113.770859 
	C252.616531,111.479912 253.938293,109.192009 253.949753,106.897545 
	C254.091522,78.527542 254.077179,50.156452 253.967590,21.786160 
	C253.959885,19.789761 252.885422,17.797487 252.160736,14.944202 
	C252.024323,13.736717 252.034195,13.388327 252.044067,13.039936 
	C261.046906,12.973892 270.049744,12.907849 279.518127,13.517240 
	C279.999420,14.577081 280.015198,14.961489 279.800415,15.569300 
	C274.757172,17.949677 272.500336,22.107370 270.986267,26.821152 
	C267.967896,36.218197 269.442657,45.550797 271.103943,54.991756 
	C270.172821,56.057739 269.578400,57.003056 268.983948,57.948372 
	C269.002747,74.151543 268.957306,90.355347 269.116943,106.557129 
	C269.138245,108.720184 270.197723,110.873016 270.891785,113.901840 
	C270.975983,115.138145 270.944763,115.503181 270.913574,115.868217 
	C264.904449,115.929474 258.895325,115.990738 252.448151,115.434814 
	C251.974625,114.468712 251.939133,114.119781 251.903656,113.770859 
z"/>
<path fill="#1D1D1D" opacity="1.000000" stroke="none" 
	d="
M280.030945,15.345896 
	C280.015198,14.961489 279.999420,14.577081 279.973206,13.615655 
	C306.039459,5.285867 330.152222,26.380791 323.619843,59.201378 
	C322.697479,63.835564 320.800049,68.491386 318.400177,72.576958 
	C309.807495,87.205330 297.349274,89.620461 283.360413,79.851059 
	C283.017578,79.978027 283.044312,80.048012 283.165558,79.738632 
	C282.875214,79.292671 282.463623,79.156082 281.734924,78.975273 
	C281.687683,77.926308 281.957550,76.921555 282.549011,76.037567 
	C292.501038,85.277008 304.026672,82.720604 307.335724,69.963509 
	C312.132416,51.471455 307.743103,34.721313 294.885742,20.483154 
	C291.025482,16.208296 285.999023,14.116697 280.030945,15.345896 
z"/>
<path fill="#1F1F1E" opacity="1.000000" stroke="none" 
	d="
M201.624207,78.686615 
	C202.767654,78.957130 203.553833,79.204628 204.295929,79.547508 
	C212.766754,83.461357 219.983582,81.262337 222.491608,72.302483 
	C224.535248,65.001587 225.159729,56.922230 224.526016,49.345928 
	C223.659180,38.982445 219.489288,29.430408 212.231766,21.609840 
	C208.383438,17.462955 203.906998,14.458655 197.419922,15.087206 
	C196.988800,14.713956 196.974106,14.375387 196.946625,13.528626 
	C218.761292,6.439335 238.383987,20.598778 240.684738,45.093403 
	C241.917374,58.216381 238.637436,70.285034 228.897339,79.806152 
	C220.889099,87.634338 209.828766,87.888794 201.332611,80.709473 
	C200.986938,80.417374 201.261093,79.391754 201.624207,78.686615 
z"/>
<path fill="#1C1C1B" opacity="1.000000" stroke="none" 
	d="
M282.227417,75.916809 
	C281.957550,76.921555 281.687683,77.926308 281.708130,79.331192 
	C282.347076,79.836876 282.695679,79.942444 283.044312,80.048012 
	C283.044312,80.048012 283.017578,79.978027 283.002808,79.943848 
	C286.948700,90.716820 292.883972,100.160133 303.770203,104.905731 
	C312.134460,108.551933 318.878998,103.974434 321.773651,93.245613 
	C325.392761,97.059082 325.983704,101.195389 325.271637,105.707581 
	C324.468170,110.798592 321.473663,114.164986 316.698395,115.819000 
	C309.999054,118.139458 303.476318,116.908272 298.395569,112.404152 
	C293.364319,107.943871 288.721558,102.744789 285.035767,97.129753 
	C277.290558,85.330452 273.231781,71.887894 269.306580,58.147179 
	C269.578400,57.003056 270.172821,56.057739 271.307739,55.267670 
	C275.307922,62.254208 278.767670,69.085503 282.227417,75.916809 
z"/>
<path fill="#1F1F1E" opacity="1.000000" stroke="none" 
	d="
M157.276764,115.972290 
	C156.906891,115.575920 156.922150,115.281944 156.965973,114.547340 
	C160.385696,114.063103 163.776825,114.019493 167.553925,113.912209 
	C167.968811,114.186798 167.997742,114.525078 168.056381,115.371750 
	C164.611359,115.945007 161.136627,116.009857 157.276764,115.972290 
z"/>
<path fill="#1D1D1D" opacity="1.000000" stroke="none" 
	d="
M251.522003,113.842201 
	C251.939133,114.119781 251.974625,114.468712 252.045654,115.342529 
	C249.871109,115.867416 247.661041,115.867416 245.450958,115.867416 
	C245.423752,115.672333 245.396545,115.477249 245.369324,115.282166 
	C247.292999,114.825958 249.216675,114.369751 251.522003,113.842201 
z"/>
<path fill="#1D1D1D" opacity="1.000000" stroke="none" 
	d="
M271.280853,115.977539 
	C270.944763,115.503181 270.975983,115.138145 271.070892,114.227272 
	C273.316681,114.195045 275.498749,114.708656 277.680786,115.222267 
	C277.675018,115.510468 277.669250,115.798668 277.663483,116.086868 
	C275.658356,116.086868 273.653259,116.086868 271.280853,115.977539 
z"/>
<path fill="#1D1D1D" opacity="1.000000" stroke="none" 
	d="
M251.686142,12.920714 
	C252.034195,13.388327 252.024323,13.736717 251.980560,14.606804 
	C249.802582,14.620206 247.658478,14.111912 245.514389,13.603618 
	C245.507706,13.336243 245.501038,13.068868 245.494354,12.801493 
	C247.438980,12.801493 249.383591,12.801493 251.686142,12.920714 
z"/>
<path fill="#1F1F1E" opacity="1.000000" stroke="none" 
	d="
M167.695526,12.912762 
	C168.041763,13.365605 168.035324,13.703444 168.003983,14.547520 
	C165.835663,14.569447 163.692230,14.085137 161.548813,13.600828 
	C161.565933,13.333138 161.583069,13.065448 161.600189,12.797757 
	C163.514420,12.797757 165.428650,12.797757 167.695526,12.912762 
z"/>
<path fill="#1F1F1E" opacity="1.000000" stroke="none" 
	d="
M131.610260,113.978867 
	C132.017181,114.267609 132.036682,114.588165 132.081787,115.389763 
	C130.492386,115.870811 128.877411,115.870811 127.262421,115.870811 
	C127.191025,115.625374 127.119637,115.379929 127.048241,115.134491 
	C128.439774,114.759888 129.831299,114.385277 131.610260,113.978867 
z"/>
<path fill="#1F1F1E" opacity="1.000000" stroke="none" 
	d="
M188.363190,114.107452 
	C190.413147,114.465027 191.979645,114.750801 193.892456,115.099754 
	C189.085602,116.704018 188.290314,116.535484 188.363190,114.107452 
z"/>
<path fill="#FCFCFC" opacity="1.000000" stroke="none" 
	d="
M65.169106,93.597595 
	C63.030754,104.192635 57.146503,109.675735 46.911957,110.913887 
	C45.100464,111.133034 43.261684,111.189331 41.434490,111.205414 
	C32.395992,111.284966 31.818953,110.723297 31.834614,101.859901 
	C31.854298,90.719490 31.897690,79.579117 31.952286,68.438835 
	C31.953703,68.149765 32.203541,67.861908 32.343918,67.576462 
	C53.461254,63.277931 67.126862,73.907700 65.169106,93.597595 
z"/>
<path fill="#FCFCFC" opacity="1.000000" stroke="none" 
	d="
M31.828938,42.999306 
	C31.830709,36.501865 31.902084,30.502954 31.803438,24.506840 
	C31.757538,21.716818 32.747631,20.316231 35.649506,19.776274 
	C45.256905,17.988609 54.058186,21.069950 58.134731,27.927462 
	C62.676174,35.566998 61.945251,48.258904 56.398800,54.867104 
	C49.903698,62.605553 41.194721,61.811745 31.828943,60.928722 
	C31.828943,55.023582 31.828943,49.261284 31.828938,42.999306 
z"/>
<path fill="#FAFAFA" opacity="1.000000" stroke="none" 
	d="
M378.195129,67.918655 
	C377.670044,74.383362 378.012878,80.700912 376.269012,86.377426 
	C374.132812,93.331078 367.758179,95.910919 360.565002,94.353737 
	C358.947021,94.003464 357.321381,93.569603 355.792603,92.945526 
	C345.034485,88.553909 344.805328,88.003609 347.965973,77.008614 
	C352.461456,61.370029 356.912750,45.718742 361.717468,28.901846 
	C370.532471,41.032360 375.483948,53.749310 378.195129,67.918655 
z"/>
<path fill="#FAFAFA" opacity="1.000000" stroke="none" 
	d="
M128.067963,85.792847 
	C123.153732,94.792961 116.563278,96.905403 106.901749,92.902779 
	C96.612854,88.640251 96.148338,87.677010 99.146324,77.269661 
	C103.427155,62.408958 107.680206,47.540253 111.955544,32.677963 
	C112.224106,31.744350 112.582970,30.836714 113.174080,29.120945 
	C120.597023,39.290890 125.113991,49.970184 128.091125,61.400738 
	C130.178360,69.414658 131.287781,77.403534 128.067963,85.792847 
z"/>
<path fill="#FCFCFC" opacity="1.000000" stroke="none" 
	d="
M282.549011,76.037567 
	C278.767670,69.085503 275.307922,62.254208 271.644409,55.146999 
	C269.442657,45.550797 267.967896,36.218197 270.986267,26.821152 
	C272.500336,22.107370 274.757172,17.949677 279.800385,15.569300 
	C285.999023,14.116697 291.025482,16.208296 294.885742,20.483154 
	C307.743103,34.721313 312.132416,51.471455 307.335724,69.963509 
	C304.026672,82.720604 292.501038,85.277008 282.549011,76.037567 
z"/>
<path fill="#FBFBFB" opacity="1.000000" stroke="none" 
	d="
M283.165558,79.738632 
	C282.695679,79.942444 282.347076,79.836876 282.025238,79.375397 
	C282.463623,79.156082 282.875214,79.292671 283.165558,79.738632 
z"/>
</svg>