<?xml version="1.0" encoding="UTF-8"?>
<svg version="1.1" xmlns="http://www.w3.org/2000/svg" width="95" height="95">
<path d="M0 0 C4.50443802 4.29969083 8.82170541 9.95334855 9.07421875 16.3671875 C9.06261719 17.26050781 9.05101563 18.15382813 9.0390625 19.07421875 C9.03003906 19.97527344 9.02101563 20.87632813 9.01171875 21.8046875 C9.00011719 22.49175781 8.98851563 23.17882812 8.9765625 23.88671875 C9.8221875 24.05171875 10.6678125 24.21671875 11.5390625 24.38671875 C16.9300692 26.73915804 20.56818501 31.02332875 23.15625 36.28515625 C25.06494592 42.33844902 25.03254086 49.42914249 22.4140625 55.26171875 C19.52149374 60.18524004 15.40286643 63.58479957 10.4140625 66.26171875 C7.5295511 67.00133706 4.9420292 67.02464743 1.9765625 66.88671875 C1.89019531 67.53898437 1.80382812 68.19125 1.71484375 68.86328125 C0.7206365 75.04743278 -0.52283312 78.49588521 -5.0234375 82.88671875 C-8.25135305 85.03866245 -9.30744559 85.08758318 -13.0234375 84.88671875 C-12.4665625 84.47421875 -11.9096875 84.06171875 -11.3359375 83.63671875 C-10.5728125 83.05921875 -9.8096875 82.48171875 -9.0234375 81.88671875 C-8.1778125 81.30921875 -7.3321875 80.73171875 -6.4609375 80.13671875 C-2.01956256 76.03698804 -1.07077133 71.44476618 -0.1484375 65.69921875 C0.49504 62.2568757 0.82683815 61.06211013 3.1640625 58.32421875 C6.46091281 56.63916193 9.31089849 56.23918644 12.9765625 55.88671875 C13.3065625 55.55671875 13.6365625 55.22671875 13.9765625 54.88671875 C9.49040768 54.99423009 5.98623403 55.27213608 2.1015625 57.63671875 C-0.65130481 61.8469864 -1.2357971 65.88764183 -2.21484375 70.77734375 C-3.46461447 75.58322538 -5.57286866 78.43058364 -9.91015625 81.0078125 C-13.5733262 82.53131202 -17.13230327 82.44066494 -21.0234375 81.88671875 C-25.01968609 79.81458985 -27.63970891 77.67841889 -30.0234375 73.88671875 C-30.56136915 71.75944357 -31.01383515 69.60948521 -31.3984375 67.44921875 C-32.26767371 63.49774188 -32.91623656 61.05067313 -35.1484375 57.63671875 C-39.03310903 55.27213608 -42.53728268 54.99423009 -47.0234375 54.88671875 C-47.0234375 55.21671875 -47.0234375 55.54671875 -47.0234375 55.88671875 C-45.8065625 55.94859375 -44.5896875 56.01046875 -43.3359375 56.07421875 C-40.240215 56.50083775 -38.92361222 56.9510506 -36.2109375 58.69921875 C-33.4854326 62.67066874 -32.78840733 66.34969991 -31.75390625 71.0078125 C-30.63906702 75.40159063 -28.99694535 78.53418535 -25.2109375 81.12890625 C-23.52035881 82.11734943 -21.77502563 83.01092468 -20.0234375 83.88671875 C-20.0234375 84.21671875 -20.0234375 84.54671875 -20.0234375 84.88671875 C-23.42034456 84.81878061 -26.05337492 84.67941097 -28.75390625 82.47265625 C-33.04018074 77.66779547 -35.0234375 73.42103275 -35.0234375 66.88671875 C-35.5803125 66.88414063 -36.1371875 66.8815625 -36.7109375 66.87890625 C-44.31208101 66.49371317 -48.47011333 63.60390981 -53.6328125 58.203125 C-57.64646275 52.96057622 -57.54939071 47.6749665 -57.4921875 41.25390625 C-56.61421123 34.94711003 -53.71546348 31.03316031 -49.0234375 26.88671875 C-47.9715625 26.39171875 -46.9196875 25.89671875 -45.8359375 25.38671875 C-41.80517879 21.80382212 -42.21403845 18.35212728 -41.63671875 13.15625 C-40.36268769 6.36412264 -35.59866189 1.70134596 -30.0234375 -2.11328125 C-21.25804422 -7.664697 -7.97378842 -5.98759022 0 0 Z M-22.0234375 -1.11328125 C-22.42717351 2.04931746 -22.56802412 4.02684514 -20.8359375 6.76171875 C-18.36836642 8.29331459 -16.87823919 8.314939 -14.0234375 7.88671875 C-12.10677083 6.80338542 -12.10677083 6.80338542 -11.0234375 4.88671875 C-10.5900361 1.99737611 -10.59817966 0.53579651 -12.2109375 -1.92578125 C-15.92945953 -4.3620543 -18.50633427 -3.45801674 -22.0234375 -1.11328125 Z M-26.0234375 -2.11328125 C-33.07837009 1.64934947 -38.03309838 7.3532014 -40.56640625 14.953125 C-41.2002456 17.63475304 -41.2287463 20.14926811 -41.0234375 22.88671875 C-40.3634375 22.88671875 -39.7034375 22.88671875 -39.0234375 22.88671875 C-38.88808594 22.11328125 -38.75273438 21.33984375 -38.61328125 20.54296875 C-36.71568409 11.36178011 -33.35817186 5.69099244 -25.5859375 0.38671875 C-24.7403125 -0.10828125 -23.8946875 -0.60328125 -23.0234375 -1.11328125 C-24.0134375 -1.44328125 -25.0034375 -1.77328125 -26.0234375 -2.11328125 Z M-10.0234375 -2.11328125 C-10.0234375 -1.45328125 -10.0234375 -0.79328125 -10.0234375 -0.11328125 C-8.36228786 1.07324042 -8.36228786 1.07324042 -6.2734375 2.19921875 C-1.35450653 5.15405361 1.67447207 8.62068689 3.9765625 13.88671875 C4.390625 16.24609375 4.390625 16.24609375 4.6015625 18.63671875 C4.67632812 19.4359375 4.75109375 20.23515625 4.828125 21.05859375 C4.87710938 21.661875 4.92609375 22.26515625 4.9765625 22.88671875 C5.9665625 22.88671875 6.9565625 22.88671875 7.9765625 22.88671875 C6.78934616 13.24723083 4.63166818 6.52213297 -3.1484375 0.38671875 C-5.84080555 -1.58279562 -6.60035126 -2.11328125 -10.0234375 -2.11328125 Z M-25.0234375 1.88671875 C-30.73649909 5.40244896 -33.82571401 8.48675473 -36.0234375 14.88671875 C-36.55031399 17.25319791 -36.82136184 19.46181085 -37.0234375 21.88671875 C-36.0334375 21.88671875 -35.0434375 21.88671875 -34.0234375 21.88671875 C-33.94609375 20.92572266 -33.94609375 20.92572266 -33.8671875 19.9453125 C-32.98409354 13.21172102 -31.06507155 10.20712654 -25.703125 6.06640625 C-25.14882813 5.67710938 -24.59453125 5.2878125 -24.0234375 4.88671875 C-24.3534375 3.89671875 -24.6834375 2.90671875 -25.0234375 1.88671875 Z M-9.0234375 2.88671875 C-7.86107239 6.37381407 -6.2383278 7.33760624 -3.44921875 9.57421875 C-1.40378561 11.45713803 -0.78167691 13.23288083 -0.0234375 15.88671875 C0.3478125 17.14484375 0.7190625 18.40296875 1.1015625 19.69921875 C1.3903125 20.75109375 1.6790625 21.80296875 1.9765625 22.88671875 C2.6365625 22.22671875 3.2965625 21.56671875 3.9765625 20.88671875 C2.43155955 14.15104801 0.54315848 8.33727348 -5.0234375 3.88671875 C-7.13010247 3.17792963 -7.13010247 3.17792963 -9.0234375 2.88671875 Z M-25.0234375 6.88671875 C-29.66231323 9.67004419 -31.31117755 12.84005785 -33.0234375 17.88671875 C-33.0234375 19.20671875 -33.0234375 20.52671875 -33.0234375 21.88671875 C-32.3634375 21.88671875 -31.7034375 21.88671875 -31.0234375 21.88671875 C-30.80300781 20.99919922 -30.80300781 20.99919922 -30.578125 20.09375 C-28.89147257 14.15169289 -27.11557748 11.3946374 -22.0234375 7.88671875 C-23.0134375 7.55671875 -24.0034375 7.22671875 -25.0234375 6.88671875 Z M-11.0234375 6.88671875 C-10.42595703 7.50546875 -10.42595703 7.50546875 -9.81640625 8.13671875 C-5.8231792 12.48943339 -3.80123751 16.25701871 -2.0234375 21.88671875 C-1.6934375 21.88671875 -1.3634375 21.88671875 -1.0234375 21.88671875 C-0.51711579 16.57034078 -1.77635374 14.06154072 -5.0234375 9.88671875 C-6.46035705 8.02870636 -6.46035705 8.02870636 -8.0234375 6.88671875 C-9.0134375 6.88671875 -10.0034375 6.88671875 -11.0234375 6.88671875 Z M-24.56640625 11.27734375 C-25.10910156 11.8909375 -25.65179688 12.50453125 -26.2109375 13.13671875 C-26.76136719 13.74 -27.31179687 14.34328125 -27.87890625 14.96484375 C-29.26951203 16.84107932 -29.26951203 16.84107932 -28.69921875 19.12109375 C-28.47621094 19.70375 -28.25320312 20.28640625 -28.0234375 20.88671875 C-24.19674707 17.46283783 -22.30065276 14.87946932 -21.0234375 9.88671875 C-23.1220219 9.6635574 -23.1220219 9.6635574 -24.56640625 11.27734375 Z M-20.0234375 9.88671875 C-20.4153125 11.12421875 -20.8071875 12.36171875 -21.2109375 13.63671875 C-22.95864521 18.33888474 -25.54192326 20.64596163 -30.0234375 22.88671875 C-31.89636348 23.15180981 -33.77181911 23.39917212 -35.6484375 23.63671875 C-43.11881851 24.87134459 -48.3904514 27.26962847 -53.0234375 33.38671875 C-56.10714484 38.86655003 -55.73151272 44.80045419 -55.0234375 50.88671875 C-53.14232136 56.97268272 -48.41778902 60.96002018 -42.97265625 64.05078125 C-40.55921381 65.08580466 -38.62203158 65.03108509 -36.0234375 64.88671875 C-36.0234375 64.22671875 -36.0234375 63.56671875 -36.0234375 62.88671875 C-36.91095703 62.64888672 -36.91095703 62.64888672 -37.81640625 62.40625 C-44.53910852 60.42124329 -48.07875044 57.80374934 -52.0234375 51.88671875 C-53.71095353 45.5680497 -53.2643001 39.60398799 -50.0234375 33.88671875 C-45.83047016 28.72700827 -40.80667082 27.4372185 -34.4609375 26.38671875 C-28.15392541 25.31879838 -23.94254957 24.09466633 -20.0234375 18.88671875 C-18.1423731 15.45173158 -18.0234375 13.89249372 -18.0234375 9.88671875 C-18.6834375 9.88671875 -19.3434375 9.88671875 -20.0234375 9.88671875 Z M-16.0234375 9.88671875 C-14.63087634 15.85483803 -12.92583361 19.97278838 -7.97265625 23.7421875 C-4.78798346 25.61214567 -1.63631194 26.28568603 1.9765625 26.88671875 C8.76983883 28.09289512 13.34459682 29.22373975 17.58203125 35.12109375 C20.10074993 40.11619971 19.59487686 45.43181208 18.9765625 50.88671875 C16.12212055 56.91276287 11.81655371 60.30376353 5.6640625 62.63671875 C4.4471875 63.04921875 3.2303125 63.46171875 1.9765625 63.88671875 C1.9765625 64.21671875 1.9765625 64.54671875 1.9765625 64.88671875 C9.09580885 64.39573624 13.23598609 62.85567653 18.2265625 57.44921875 C22.33384111 51.43498936 22.90583884 45.86432766 21.58203125 38.7734375 C19.79845724 32.84736903 15.98599544 29.34150009 10.9765625 25.88671875 C7.42668119 24.22507218 4.26534506 23.7987576 0.4140625 23.44921875 C-3.43289105 23.06775613 -5.96531846 22.40516972 -9.0234375 19.88671875 C-11.41007649 16.6477087 -12.45633088 13.8564651 -13.0234375 9.88671875 C-14.0134375 9.88671875 -15.0034375 9.88671875 -16.0234375 9.88671875 Z M-12.0234375 9.88671875 C-10.87828952 15.30014556 -9.68330941 17.82101355 -5.0234375 20.88671875 C-4.6934375 20.22671875 -4.3634375 19.56671875 -4.0234375 18.88671875 C-5.52130633 15.366727 -6.96929066 12.27692062 -10.0234375 9.88671875 C-10.6834375 9.88671875 -11.3434375 9.88671875 -12.0234375 9.88671875 Z M-17.0234375 14.88671875 C-19.9934375 19.83671875 -19.9934375 19.83671875 -23.0234375 24.88671875 C-21.7034375 25.54671875 -20.3834375 26.20671875 -19.0234375 26.88671875 C-17.82070931 29.29217513 -17.92272278 30.83668828 -17.9609375 33.51171875 C-17.96996094 34.32898438 -17.97898437 35.14625 -17.98828125 35.98828125 C-17.99988281 36.61476563 -18.01148437 37.24125 -18.0234375 37.88671875 C-18.6834375 38.21671875 -19.3434375 38.54671875 -20.0234375 38.88671875 C-19.6934375 38.22671875 -19.3634375 37.56671875 -19.0234375 36.88671875 C-18.58596694 31.67983439 -18.58596694 31.67983439 -20.0234375 26.82421875 C-24.17594422 24.87773122 -29.7384222 26.63692262 -34.0234375 27.88671875 C-33.75303414 34.37639932 -31.42534452 38.16672521 -27.0234375 42.88671875 C-23.17682101 46.01209465 -20.04361596 47.88671875 -15.0234375 47.88671875 C-8.56750805 45.0695859 -2.94079202 40.47133807 0.4140625 34.19921875 C1.13413022 31.6355952 1.13413022 31.6355952 0.9765625 27.88671875 C-4.18913191 26.09453906 -7.53397663 25.76642061 -13.0234375 26.88671875 C-12.3634375 25.56671875 -11.7034375 24.24671875 -11.0234375 22.88671875 C-11.6421875 22.12359375 -12.2609375 21.36046875 -12.8984375 20.57421875 C-15.0234375 17.88671875 -15.0234375 17.88671875 -17.0234375 14.88671875 Z M-47.0234375 32.88671875 C-50.51921061 36.64467485 -51.24527321 39.26959819 -51.2734375 44.26171875 C-51.20973121 45.80432112 -51.13300446 47.34669419 -51.0234375 48.88671875 C-50.3634375 48.88671875 -49.7034375 48.88671875 -49.0234375 48.88671875 C-49.00925781 48.23445313 -48.99507812 47.5821875 -48.98046875 46.91015625 C-48.54173587 38.87067267 -48.54173587 38.87067267 -45.8984375 35.38671875 C-42.4929652 32.42543849 -40.38624421 31.74217105 -36.0234375 30.88671875 C-36.0234375 29.89671875 -36.0234375 28.90671875 -36.0234375 27.88671875 C-40.57473897 27.88671875 -43.46718967 30.18912231 -47.0234375 32.88671875 Z M2.9765625 27.88671875 C2.9765625 28.87671875 2.9765625 29.86671875 2.9765625 30.88671875 C4.0284375 31.09296875 5.0803125 31.29921875 6.1640625 31.51171875 C9.60760974 32.53151164 11.82215877 34.02993088 14.04296875 36.95703125 C15.85580226 40.70405952 15.88734221 44.78258549 15.9765625 48.88671875 C16.6365625 48.88671875 17.2965625 48.88671875 17.9765625 48.88671875 C18.60138886 42.88838567 18.10490589 38.62951971 14.61328125 33.6171875 C11.89784215 30.74621012 8.69787631 29.13537151 4.9765625 27.88671875 C4.3165625 27.88671875 3.6565625 27.88671875 2.9765625 27.88671875 Z M-45.8359375 37.19921875 C-47.74240948 39.90841577 -47.7877841 42.64648452 -48.0234375 45.88671875 C-47.6934375 46.54671875 -47.3634375 47.20671875 -47.0234375 47.88671875 C-45.0434375 47.88671875 -43.0634375 47.88671875 -41.0234375 47.88671875 C-41.3740625 47.18546875 -41.7246875 46.48421875 -42.0859375 45.76171875 C-43.1873568 42.38403289 -42.81859891 40.30591282 -42.0234375 36.88671875 C-36.2734375 35.76171875 -36.2734375 35.76171875 -34.0234375 36.88671875 C-34.6834375 35.23671875 -35.3434375 33.58671875 -36.0234375 31.88671875 C-39.86110478 31.88671875 -42.82464678 35.01862891 -45.8359375 37.19921875 Z M1.9765625 31.88671875 C1.3165625 33.86671875 0.6565625 35.84671875 -0.0234375 37.88671875 C0.6365625 37.55671875 1.2965625 37.22671875 1.9765625 36.88671875 C1.9765625 36.22671875 1.9765625 35.56671875 1.9765625 34.88671875 C4.2865625 35.21671875 6.5965625 35.54671875 8.9765625 35.88671875 C9.90126803 40.60271693 10.20580027 43.55937484 7.9765625 47.88671875 C9.9565625 47.88671875 11.9365625 47.88671875 13.9765625 47.88671875 C15.31223006 44.85111066 14.89235216 43.62473104 13.8515625 40.38671875 C11.89511133 36.73467656 10.47152364 35.05026612 6.9765625 32.88671875 C4.29148921 32.09725266 4.29148921 32.09725266 1.9765625 31.88671875 Z M-1.0234375 37.88671875 C-0.0234375 39.88671875 -0.0234375 39.88671875 -0.0234375 39.88671875 Z M-33.0234375 38.88671875 C-32.3634375 40.20671875 -31.7034375 41.52671875 -31.0234375 42.88671875 C-31.0234375 41.89671875 -31.0234375 40.90671875 -31.0234375 39.88671875 C-31.6834375 39.55671875 -32.3434375 39.22671875 -33.0234375 38.88671875 Z M-2.0234375 39.88671875 C-3.0134375 41.37171875 -3.0134375 41.37171875 -4.0234375 42.88671875 C-3.0334375 42.55671875 -2.0434375 42.22671875 -1.0234375 41.88671875 C-1.3534375 41.22671875 -1.6834375 40.56671875 -2.0234375 39.88671875 Z M-33.0234375 44.88671875 C-30.35096116 47.22959293 -30.35096116 47.22959293 -27.0234375 47.88671875 C-27.0234375 51.51671875 -27.0234375 55.14671875 -27.0234375 58.88671875 C-26.3634375 59.21671875 -25.7034375 59.54671875 -25.0234375 59.88671875 C-23.3240913 55.50419433 -22.83122092 53.68121394 -23.9609375 49.01171875 C-25.76794142 45.5112278 -25.76794142 45.5112278 -29.7109375 44.94921875 C-30.8040625 44.92859375 -31.8971875 44.90796875 -33.0234375 44.88671875 Z M-7.8359375 45.88671875 C-9.70103146 49.02792963 -10.052611 52.26191163 -10.0234375 55.88671875 C-9.23558397 58.31044465 -9.23558397 58.31044465 -8.0234375 59.88671875 C-7.6934375 59.88671875 -7.3634375 59.88671875 -7.0234375 59.88671875 C-7.0646875 58.64921875 -7.1059375 57.41171875 -7.1484375 56.13671875 C-7.11845783 50.48055344 -7.11845783 50.48055344 -5.0234375 47.88671875 C-2.3984375 46.63671875 -2.3984375 46.63671875 -0.0234375 45.88671875 C-0.0234375 45.55671875 -0.0234375 45.22671875 -0.0234375 44.88671875 C-4.08638486 44.5646649 -4.08638486 44.5646649 -7.8359375 45.88671875 Z M-40.0234375 46.88671875 C-40.0234375 47.54671875 -40.0234375 48.20671875 -40.0234375 48.88671875 C-39.49234375 49.14066406 -38.96125 49.39460938 -38.4140625 49.65625 C-34.6910203 51.47021399 -31.22581535 53.21807055 -28.0234375 55.88671875 C-26.67536597 52.93495894 -26.67536597 52.93495894 -28.0859375 50.32421875 C-31.24211969 46.35353793 -35.21822203 45.03855895 -40.0234375 46.88671875 Z M-4.0234375 48.88671875 C-6.3007876 51.70181868 -6.3007876 51.70181868 -6.0234375 54.88671875 C-3.37817947 53.93148668 -1.21220665 53.02972568 1.0390625 51.32421875 C3.05343979 49.82968076 4.53150239 49.32333663 6.9765625 48.88671875 C6.9765625 48.22671875 6.9765625 47.56671875 6.9765625 46.88671875 C2.36834478 45.39582478 0.02447821 46.36801564 -4.0234375 48.88671875 Z M-23.0234375 47.88671875 C-22.9821875 49.45421875 -22.9409375 51.02171875 -22.8984375 52.63671875 C-22.79883525 56.42160411 -23.24656629 58.57309407 -25.0234375 61.88671875 C-25.48096894 66.91956462 -25.04876105 69.81416782 -22.0234375 73.88671875 C-20.15631721 76.15880578 -20.15631721 76.15880578 -17.2109375 76.26171875 C-13.3037449 75.80204903 -11.77731782 74.64059907 -9.0234375 71.88671875 C-7.82728809 68.29827051 -7.76747294 65.66219598 -8.0234375 61.88671875 C-8.5184375 60.91734375 -9.0134375 59.94796875 -9.5234375 58.94921875 C-11.48065564 54.95323172 -11.25138131 52.2936324 -11.0234375 47.88671875 C-14.9834375 47.88671875 -18.9434375 47.88671875 -23.0234375 47.88671875 Z M-49.0234375 49.88671875 C-49.3534375 50.87671875 -49.6834375 51.86671875 -50.0234375 52.88671875 C-48.82847656 52.90798828 -48.82847656 52.90798828 -47.609375 52.9296875 C-37.87236037 53.36797161 -37.87236037 53.36797161 -34.3984375 56.19921875 C-31.06903115 59.96670488 -29.91068087 62.82506775 -29.2109375 67.76171875 C-28.27486736 72.83147461 -26.69475272 75.30718641 -23.0234375 78.88671875 C-19.53183303 80.63252099 -15.83298392 80.45655006 -12.0234375 79.88671875 C-8.73804318 78.21981342 -6.60951148 75.91234822 -4.7734375 72.69921875 C-3.99745353 69.98029018 -3.99745353 69.98029018 -3.64453125 67.5234375 C-2.95355893 63.3215788 -2.40516705 60.44196173 0.0390625 56.88671875 C3.8937265 54.26226666 7.42711792 53.59422731 11.9765625 52.88671875 C12.9871875 52.68046875 13.9978125 52.47421875 15.0390625 52.26171875 C15.6784375 52.13796875 16.3178125 52.01421875 16.9765625 51.88671875 C14.61564101 49.52579726 14.01405766 49.56722641 10.7890625 49.51171875 C4.65854291 49.65956086 0.96744839 51.84202513 -3.3359375 56.26171875 C-5.58528623 59.76070566 -6.68859336 63.07918046 -7.4453125 67.1640625 C-8.61547047 73.38809238 -8.61547047 73.38809238 -10.7109375 75.94921875 C-14.08712435 77.31794315 -16.41387417 77.39332413 -20.0234375 76.88671875 C-24.51188744 74.03043242 -25.43434921 70.90659081 -26.5859375 65.94921875 C-26.81925781 64.89863281 -27.05257812 63.84804687 -27.29296875 62.765625 C-28.63263713 57.4857555 -30.86944517 54.76375292 -35.1484375 51.51171875 C-39.58207119 49.17416025 -44.14237175 49.53316067 -49.0234375 49.88671875 Z M7.9765625 57.88671875 C6.9865625 58.87671875 5.9965625 59.86671875 4.9765625 60.88671875 C6.6265625 60.22671875 8.2765625 59.56671875 9.9765625 58.88671875 C9.3165625 58.55671875 8.6565625 58.22671875 7.9765625 57.88671875 Z " fill="#CB9C9E" transform="translate(64.0234375,7.11328125)"/>
<path d="M0 0 C4.50443802 4.29969083 8.82170541 9.95334855 9.07421875 16.3671875 C9.06261719 17.26050781 9.05101563 18.15382813 9.0390625 19.07421875 C9.03003906 19.97527344 9.02101563 20.87632813 9.01171875 21.8046875 C9.00011719 22.49175781 8.98851563 23.17882812 8.9765625 23.88671875 C9.8221875 24.05171875 10.6678125 24.21671875 11.5390625 24.38671875 C16.9300692 26.73915804 20.56818501 31.02332875 23.15625 36.28515625 C25.06494592 42.33844902 25.03254086 49.42914249 22.4140625 55.26171875 C19.50886575 60.2067345 15.36506246 63.54682853 10.4140625 66.32421875 C7.34751785 67.0318829 5.01720837 66.5938457 1.9765625 65.88671875 C1.9765625 65.55671875 1.9765625 65.22671875 1.9765625 64.88671875 C2.62882812 64.72816406 3.28109375 64.56960937 3.953125 64.40625 C9.835384 62.83591242 13.79437288 61.37492225 17.9765625 56.88671875 C21.42635902 50.90707144 21.89131082 45.40277351 20.54296875 38.74609375 C18.85449514 33.25068897 15.74869156 29.99629962 10.9765625 26.88671875 C7.43413281 25.26952259 4.30611652 24.81270377 0.4765625 24.51171875 C-3.94075755 24.08039794 -6.59801319 22.82279673 -10.0234375 19.88671875 C-12.65294739 16.46835589 -13.39150519 14.18084176 -13.0234375 9.88671875 C-13.6834375 10.21671875 -14.3434375 10.54671875 -15.0234375 10.88671875 C-12.8240447 17.31828826 -12.8240447 17.31828826 -9.0234375 22.88671875 C-9.6834375 23.54671875 -10.3434375 24.20671875 -11.0234375 24.88671875 C-13.0034375 22.24671875 -14.9834375 19.60671875 -17.0234375 16.88671875 C-19.4984375 20.35171875 -19.4984375 20.35171875 -22.0234375 23.88671875 C-22.6834375 23.22671875 -23.3434375 22.56671875 -24.0234375 21.88671875 C-23.4046875 21.20609375 -22.7859375 20.52546875 -22.1484375 19.82421875 C-19.6915307 16.42790641 -18.97398145 13.92653054 -18.0234375 9.88671875 C-18.6834375 9.88671875 -19.3434375 9.88671875 -20.0234375 9.88671875 C-20.11625 11.18609375 -20.11625 11.18609375 -20.2109375 12.51171875 C-21.32855236 17.15411893 -23.72872661 20.46429537 -27.83203125 23.0078125 C-30.48701209 24.07264439 -32.9344075 24.36456625 -35.7734375 24.69921875 C-43.17274761 25.87228011 -47.72221898 28.12525653 -52.5234375 33.88671875 C-55.57693164 40.06156245 -54.94764085 48.01141943 -52.8984375 54.38671875 C-48.20662104 60.64247403 -43.39716339 62.87123367 -36.0234375 64.88671875 C-36.0234375 64.22671875 -36.0234375 63.56671875 -36.0234375 62.88671875 C-37.1371875 62.80421875 -38.2509375 62.72171875 -39.3984375 62.63671875 C-43.0234375 61.88671875 -43.0234375 61.88671875 -44.4609375 59.82421875 C-44.739375 58.86515625 -44.739375 58.86515625 -45.0234375 57.88671875 C-42.3359375 57.07421875 -42.3359375 57.07421875 -39.0234375 56.88671875 C-34.45981576 59.75224868 -33.65632368 62.6570656 -32.4609375 67.82421875 C-32.22761719 68.87480469 -31.99429688 69.92539063 -31.75390625 71.0078125 C-30.63906702 75.40159063 -28.99694535 78.53418535 -25.2109375 81.12890625 C-23.52035881 82.11734943 -21.77502563 83.01092468 -20.0234375 83.88671875 C-20.0234375 84.21671875 -20.0234375 84.54671875 -20.0234375 84.88671875 C-23.42034456 84.81878061 -26.05337492 84.67941097 -28.75390625 82.47265625 C-33.04018074 77.66779547 -35.0234375 73.42103275 -35.0234375 66.88671875 C-35.5803125 66.88414063 -36.1371875 66.8815625 -36.7109375 66.87890625 C-44.31208101 66.49371317 -48.47011333 63.60390981 -53.6328125 58.203125 C-57.64646275 52.96057622 -57.54939071 47.6749665 -57.4921875 41.25390625 C-56.61421123 34.94711003 -53.71546348 31.03316031 -49.0234375 26.88671875 C-47.9715625 26.39171875 -46.9196875 25.89671875 -45.8359375 25.38671875 C-41.80517879 21.80382212 -42.21403845 18.35212728 -41.63671875 13.15625 C-40.36268769 6.36412264 -35.59866189 1.70134596 -30.0234375 -2.11328125 C-21.25804422 -7.664697 -7.97378842 -5.98759022 0 0 Z M-22.0234375 -1.11328125 C-22.42717351 2.04931746 -22.56802412 4.02684514 -20.8359375 6.76171875 C-18.36836642 8.29331459 -16.87823919 8.314939 -14.0234375 7.88671875 C-12.10677083 6.80338542 -12.10677083 6.80338542 -11.0234375 4.88671875 C-10.5900361 1.99737611 -10.59817966 0.53579651 -12.2109375 -1.92578125 C-15.92945953 -4.3620543 -18.50633427 -3.45801674 -22.0234375 -1.11328125 Z M-26.0234375 -2.11328125 C-33.07837009 1.64934947 -38.03309838 7.3532014 -40.56640625 14.953125 C-41.2002456 17.63475304 -41.2287463 20.14926811 -41.0234375 22.88671875 C-40.3634375 22.88671875 -39.7034375 22.88671875 -39.0234375 22.88671875 C-38.88808594 22.11328125 -38.75273438 21.33984375 -38.61328125 20.54296875 C-36.71568409 11.36178011 -33.35817186 5.69099244 -25.5859375 0.38671875 C-24.7403125 -0.10828125 -23.8946875 -0.60328125 -23.0234375 -1.11328125 C-24.0134375 -1.44328125 -25.0034375 -1.77328125 -26.0234375 -2.11328125 Z M-10.0234375 -2.11328125 C-10.0234375 -1.45328125 -10.0234375 -0.79328125 -10.0234375 -0.11328125 C-8.36228786 1.07324042 -8.36228786 1.07324042 -6.2734375 2.19921875 C-1.35450653 5.15405361 1.67447207 8.62068689 3.9765625 13.88671875 C4.390625 16.24609375 4.390625 16.24609375 4.6015625 18.63671875 C4.67632812 19.4359375 4.75109375 20.23515625 4.828125 21.05859375 C4.87710938 21.661875 4.92609375 22.26515625 4.9765625 22.88671875 C5.9665625 22.88671875 6.9565625 22.88671875 7.9765625 22.88671875 C6.78934616 13.24723083 4.63166818 6.52213297 -3.1484375 0.38671875 C-5.84080555 -1.58279562 -6.60035126 -2.11328125 -10.0234375 -2.11328125 Z M-25.0234375 1.88671875 C-30.73649909 5.40244896 -33.82571401 8.48675473 -36.0234375 14.88671875 C-36.55031399 17.25319791 -36.82136184 19.46181085 -37.0234375 21.88671875 C-36.0334375 21.88671875 -35.0434375 21.88671875 -34.0234375 21.88671875 C-33.94609375 20.92572266 -33.94609375 20.92572266 -33.8671875 19.9453125 C-32.98409354 13.21172102 -31.06507155 10.20712654 -25.703125 6.06640625 C-25.14882813 5.67710938 -24.59453125 5.2878125 -24.0234375 4.88671875 C-24.3534375 3.89671875 -24.6834375 2.90671875 -25.0234375 1.88671875 Z M-9.0234375 2.88671875 C-7.86107239 6.37381407 -6.2383278 7.33760624 -3.44921875 9.57421875 C-1.40378561 11.45713803 -0.78167691 13.23288083 -0.0234375 15.88671875 C0.3478125 17.14484375 0.7190625 18.40296875 1.1015625 19.69921875 C1.3903125 20.75109375 1.6790625 21.80296875 1.9765625 22.88671875 C2.6365625 22.22671875 3.2965625 21.56671875 3.9765625 20.88671875 C2.43155955 14.15104801 0.54315848 8.33727348 -5.0234375 3.88671875 C-7.13010247 3.17792963 -7.13010247 3.17792963 -9.0234375 2.88671875 Z M-25.0234375 6.88671875 C-29.66231323 9.67004419 -31.31117755 12.84005785 -33.0234375 17.88671875 C-33.0234375 19.20671875 -33.0234375 20.52671875 -33.0234375 21.88671875 C-32.3634375 21.88671875 -31.7034375 21.88671875 -31.0234375 21.88671875 C-30.80300781 20.99919922 -30.80300781 20.99919922 -30.578125 20.09375 C-28.89147257 14.15169289 -27.11557748 11.3946374 -22.0234375 7.88671875 C-23.0134375 7.55671875 -24.0034375 7.22671875 -25.0234375 6.88671875 Z M-11.0234375 6.88671875 C-10.42595703 7.50546875 -10.42595703 7.50546875 -9.81640625 8.13671875 C-5.8231792 12.48943339 -3.80123751 16.25701871 -2.0234375 21.88671875 C-1.6934375 21.88671875 -1.3634375 21.88671875 -1.0234375 21.88671875 C-0.51711579 16.57034078 -1.77635374 14.06154072 -5.0234375 9.88671875 C-6.46035705 8.02870636 -6.46035705 8.02870636 -8.0234375 6.88671875 C-9.0134375 6.88671875 -10.0034375 6.88671875 -11.0234375 6.88671875 Z M-24.56640625 11.27734375 C-25.10910156 11.8909375 -25.65179688 12.50453125 -26.2109375 13.13671875 C-26.76136719 13.74 -27.31179687 14.34328125 -27.87890625 14.96484375 C-29.26951203 16.84107932 -29.26951203 16.84107932 -28.69921875 19.12109375 C-28.47621094 19.70375 -28.25320312 20.28640625 -28.0234375 20.88671875 C-24.19674707 17.46283783 -22.30065276 14.87946932 -21.0234375 9.88671875 C-23.1220219 9.6635574 -23.1220219 9.6635574 -24.56640625 11.27734375 Z M-12.0234375 9.88671875 C-10.87828952 15.30014556 -9.68330941 17.82101355 -5.0234375 20.88671875 C-4.6934375 20.22671875 -4.3634375 19.56671875 -4.0234375 18.88671875 C-5.52130633 15.366727 -6.96929066 12.27692062 -10.0234375 9.88671875 C-10.6834375 9.88671875 -11.3434375 9.88671875 -12.0234375 9.88671875 Z " fill="#D0A6A8" transform="translate(64.0234375,7.11328125)"/>
<path d="M0 0 C1.21236328 0.30744141 1.21236328 0.30744141 2.44921875 0.62109375 C3.51785156 0.89050781 4.58648437 1.15992187 5.6875 1.4375 C6.74324219 1.70433594 7.79898438 1.97117187 8.88671875 2.24609375 C11.5828317 2.89897932 14.2757576 3.47941193 17 4 C15.68 4.33 14.36 4.66 13 5 C13 5.99 13 6.98 13 8 C13.99 8.33 14.98 8.66 16 9 C14.68 9 13.36 9 12 9 C12 9.99 12 10.98 12 12 C13.670625 12.12375 13.670625 12.12375 15.375 12.25 C19 13 19 13 20.5 14.6875 C21.14843292 17.68650224 20.67464772 20.03155004 20 23 C18.68 23.33 17.36 23.66 16 24 C15.505 22.515 15.505 22.515 15 21 C7.76571597 21.60207237 7.76571597 21.60207237 1.75 25.125 C0.69547044 29.16736329 1.1137223 31.90948754 2 36 C2.99 36.495 2.99 36.495 4 37 C4 36.01 4 35.02 4 34 C4.66 34 5.32 34 6 34 C5.6014867 36.40013691 5.18205687 38.79337044 4.75 41.1875 C4.64042969 41.86103516 4.53085937 42.53457031 4.41796875 43.22851562 C3.56726668 47.81782941 2.25137253 50.65411083 -1 54 C-4.10048928 55.55024464 -6.57894218 55.28992015 -10 55 C-14.01060679 52.59363592 -15.71327263 50.45405627 -17 46 C-17.31675142 44.500892 -17.62887726 43.00080254 -17.9375 41.5 C-19.08093732 36.34285976 -19.08093732 36.34285976 -22 32 C-25.23957228 30.11068563 -28.57015456 28.51222079 -32 27 C-32 26.67 -32 26.34 -32 26 C-25.83543524 26.37742233 -22.82624485 28.15870308 -18 32 C-18.54839062 29.01779872 -18.54839062 29.01779872 -20 26 C-24.01361424 23.99319288 -27.56142612 23.78863934 -32 24 C-33.72217143 21.36609075 -34.00455315 20.07588583 -33.8125 16.875 C-33 14 -33 14 -30 12 C-27.625 11.875 -27.625 11.875 -25 13 C-23.05348628 15.51932974 -21.50073799 18.19649371 -20 21 C-20.66 21.33 -21.32 21.66 -22 22 C-21.195625 22.45375 -20.39125 22.9075 -19.5625 23.375 C-17 25 -17 25 -16 27 C-15.76811594 34.30434783 -15.76811594 34.30434783 -17 38 C-16.34 38 -15.68 38 -15 38 C-14.83564453 39.13888672 -14.83564453 39.13888672 -14.66796875 40.30078125 C-14.50941406 41.29464844 -14.35085937 42.28851563 -14.1875 43.3125 C-14.03667969 44.29863281 -13.88585937 45.28476563 -13.73046875 46.30078125 C-12.95605888 49.16237066 -12.3756487 50.27592485 -10 52 C-6.59324344 52.43490509 -4.6932359 52.39345822 -1.6875 50.6875 C0.80597181 48.19402819 0.98827945 46.15529724 1.25 42.6875 C1.2376683 38.99322523 1.2376683 38.99322523 -0.5 36 C-2.27797629 32.44404741 -2.23541858 29.923643 -2 26 C-2.99 25.67 -3.98 25.34 -5 25 C-4.42378906 24.57332031 -3.84757812 24.14664063 -3.25390625 23.70703125 C3.83666799 18.33687364 8.87440292 13.94282735 11 5 C9.08496326 4.77718126 7.16783494 4.57228924 5.25 4.375 C3.64898437 4.20097656 3.64898437 4.20097656 2.015625 4.0234375 C-1.03792399 3.99970525 -2.46162421 4.38579015 -5 6 C-4.34 4.68 -3.68 3.36 -3 2 C-2.01 2 -1.02 2 0 2 C0 1.34 0 0.68 0 0 Z M9 15 C10 17 10 17 10 17 Z M8 17 C7.01 18.485 7.01 18.485 6 20 C6.99 19.67 7.98 19.34 9 19 C8.67 18.34 8.34 17.68 8 17 Z " fill="#C59092" transform="translate(54,30)"/>
<path d="M0 0 C4.29428701 4.07363195 7.26550612 8.51962573 8.9765625 14.1875 C8.9765625 17.08834523 8.33935469 18.37832212 6.9765625 20.875 C6.89019531 20.318125 6.80382812 19.76125 6.71484375 19.1875 C5.31676676 11.59427451 2.68672235 5.61185684 -3.6484375 0.9375 C-6.84776601 -1.19136478 -6.84776601 -1.19136478 -10.0234375 -2.125 C-10.0234375 -1.465 -10.0234375 -0.805 -10.0234375 -0.125 C-8.755 0.1225 -8.755 0.1225 -7.4609375 0.375 C-2.13153369 2.70055803 1.21682639 6.97199584 4.203125 11.8984375 C5.4145543 14.99431239 4.59010347 17.68458694 3.9765625 20.875 C3.6465625 20.875 3.3165625 20.875 2.9765625 20.875 C2.81800781 20.22273438 2.65945312 19.57046875 2.49609375 18.8984375 C0.71515493 12.22729651 -1.13480187 7.18716172 -7.3359375 3.5 C-7.8928125 3.29375 -8.4496875 3.0875 -9.0234375 2.875 C-9.3534375 3.535 -9.6834375 4.195 -10.0234375 4.875 C-10.4978125 3.905625 -10.9721875 2.93625 -11.4609375 1.9375 C-12.72537697 -0.92977437 -12.72537697 -0.92977437 -14.0234375 -2.125 C-16.36288486 -1.83769945 -18.6973518 -1.50563221 -21.0234375 -1.125 C-21.23314309 3.01593698 -21.23314309 3.01593698 -20.0234375 6.875 C-21.0959375 7.08125 -22.1684375 7.2875 -23.2734375 7.5 C-27.78783947 9.15528072 -28.74704799 10.7437746 -31.0234375 14.875 C-31.6834375 15.865 -32.3434375 16.855 -33.0234375 17.875 C-34.0234375 14.875 -34.0234375 14.875 -32.8984375 12.5 C-30.83850128 9.6160893 -28.66032549 7.24143794 -26.0234375 4.875 C-25.3634375 4.875 -24.7034375 4.875 -24.0234375 4.875 C-24.3534375 4.215 -24.6834375 3.555 -25.0234375 2.875 C-30.47820039 5.85032521 -32.99816394 8.97943928 -35.0234375 14.875 C-35.56968501 17.57410537 -35.82652438 20.11821636 -36.0234375 22.875 C-37.0134375 22.875 -38.0034375 22.875 -39.0234375 22.875 C-38.73084759 15.4724754 -37.91577791 10.56341369 -32.30859375 5.25 C-29.64558982 2.90790775 -26.97815851 0.84481401 -24.0234375 -1.125 C-30.31002172 0.10165058 -33.5188693 3.79514609 -37.0234375 8.875 C-38.30259284 11.53240019 -39.16285466 14.04013888 -40.0234375 16.875 C-42.14188999 13.43822996 -42.14188999 13.43822996 -41.625 10.98046875 C-38.17677359 4.20815209 -33.05593101 -1.04828409 -26.0234375 -4.125 C-16.9403689 -6.20653655 -7.59004787 -5.74083621 0 0 Z " fill="#D2AAAB" transform="translate(64.0234375,7.125)"/>
<path d="M0 0 C6.5680936 2.39988035 9.10654471 5.15981706 13 11 C13.265625 14.06640625 13.265625 14.06640625 13.25 17.5625 C13.25515625 18.71878906 13.2603125 19.87507813 13.265625 21.06640625 C13 24 13 24 11 26 C10.01 25.34 9.02 24.68 8 24 C1.54561688 22.92426948 -2.72173086 24.33752754 -8 28 C-8.66 28.66 -9.32 29.32 -10 30 C-10.99 30 -11.98 30 -13 30 C-13.33 30.99 -13.66 31.98 -14 33 C-15.32244614 25.90687978 -15.32244614 25.90687978 -14 22.1875 C-11.33444501 19.27204923 -8.71132667 18.25920012 -5 17 C-4.01 17 -3.02 17 -2 17 C-1.67 17.99 -1.34 18.98 -1 20 C-1.9075 20.12375 -2.815 20.2475 -3.75 20.375 C-7.63586729 21.11082904 -7.63586729 21.11082904 -11 23 C-11.70951818 24.64888028 -12.3804474 26.31525171 -13 28 C-12.39671875 27.566875 -11.7934375 27.13375 -11.171875 26.6875 C-10.37265625 26.130625 -9.5734375 25.57375 -8.75 25 C-7.96109375 24.443125 -7.1721875 23.88625 -6.359375 23.3125 C-4 22 -4 22 0 22 C0.33 21.34 0.66 20.68 1 20 C2.98 20.33 4.96 20.66 7 21 C6.61430544 15.31100518 6.17817975 12.17817975 2 8 C-0.12603185 6.23676495 -0.12603185 6.23676495 -2 5 C-1.01 4.67 -0.02 4.34 1 4 C2.7890625 5.14453125 2.7890625 5.14453125 4.625 6.8125 C5.23601562 7.35519531 5.84703125 7.89789063 6.4765625 8.45703125 C8.47552849 10.48162501 8.98050291 11.524271 9.09765625 14.3828125 C9.08605469 15.28773437 9.07445313 16.19265625 9.0625 17.125 C9.05347656 18.03507812 9.04445313 18.94515625 9.03515625 19.8828125 C9.02355469 20.58148438 9.01195313 21.28015625 9 22 C9.66 22 10.32 22 11 22 C10.72953514 16.03624974 10.18634726 10.55191561 6 6 C3.44387863 4.34805158 0.83131411 3.10641158 -2 2 C-1.34 1.34 -0.68 0.68 0 0 Z " fill="#CEA3A5" transform="translate(71,34)"/>
<path d="M0 0 C0.33 0 0.66 0 1 0 C1.03738281 0.72445312 1.07476562 1.44890625 1.11328125 2.1953125 C1.60806974 9.47161387 2.36595536 14.30324001 7.625 19.6875 C11.30932162 22.57169116 15.53850902 23.7805258 20 25 C20 24.34 20 23.68 20 23 C18.88625 22.9175 17.7725 22.835 16.625 22.75 C13 22 13 22 11.5625 19.9375 C11.376875 19.298125 11.19125 18.65875 11 18 C13.6875 17.1875 13.6875 17.1875 17 17 C21.56362174 19.86552993 22.36711382 22.77034685 23.5625 27.9375 C23.79582031 28.98808594 24.02914062 30.03867188 24.26953125 31.12109375 C25.38437048 35.51487188 27.02649215 38.6474666 30.8125 41.2421875 C32.50307869 42.23063068 34.24841187 43.12420593 36 44 C36 44.33 36 44.66 36 45 C32.60309294 44.93206186 29.97006258 44.79269222 27.26953125 42.5859375 C22.98325676 37.78107672 21 33.534314 21 27 C20.443125 26.99742188 19.88625 26.99484375 19.3125 26.9921875 C11.70081782 26.60646036 7.48067285 23.71216653 2.35546875 18.24609375 C-1.58248007 13.04973704 -1.22879933 8.64364354 -0.39453125 2.34375 C-0.26433594 1.5703125 -0.13414062 0.796875 0 0 Z " fill="#D5B0B2" transform="translate(8,47)"/>
<path d="M0 0 C0.45763495 5.72043683 -0.28346356 8.59883843 -4 13 C-7.79234493 16.41311044 -10.95221493 17.26170205 -15.875 17.9375 C-22.52809132 18.91031881 -27.30862518 20.59541086 -31.5625 25.9765625 C-34.96586684 31.44902168 -35.85350515 36.62081518 -36 43 C-36.33 43 -36.66 43 -37 43 C-37.36801422 34.5765634 -37.47616657 28.94591881 -31.6875 22.375 C-29 20 -29 20 -25.75 18.1875 C-22.71606959 15.77414626 -22.57064619 15.3724669 -22.125 11.75 C-22.08375 10.5125 -22.0425 9.275 -22 8 C-21.67 8 -21.34 8 -21 8 C-21 10.64 -21 13.28 -21 16 C-19.02 15.67 -17.04 15.34 -15 15 C-14.67 13.35 -14.34 11.7 -14 10 C-13.67 10 -13.34 10 -13 10 C-13 11.65 -13 13.3 -13 15 C-12.34 15 -11.68 15 -11 15 C-10.9071875 13.453125 -10.9071875 13.453125 -10.8125 11.875 C-9.73375416 6.73021217 -6.08177668 0 0 0 Z M-4.54296875 4.390625 C-5.08566406 5.00421875 -5.62835938 5.6178125 -6.1875 6.25 C-6.73792969 6.85328125 -7.28835937 7.4565625 -7.85546875 8.078125 C-9.24607453 9.95436057 -9.24607453 9.95436057 -8.67578125 12.234375 C-8.45277344 12.81703125 -8.22976562 13.3996875 -8 14 C-4.17330957 10.57611908 -2.27721526 7.99275057 -1 3 C-3.0985844 2.77683865 -3.0985844 2.77683865 -4.54296875 4.390625 Z " fill="#C48F91" transform="translate(44,14)"/>
<path d="M0 0 C8.49741025 0.02875604 14.69812529 1.02193703 21 7 C24.76188682 11.44442324 28 15.98437383 28 22 C27.37561431 23.35364867 26.71422152 24.69152385 26 26 C25.91363281 25.443125 25.82726562 24.88625 25.73828125 24.3125 C24.34020426 16.71927451 21.71015985 10.73685684 15.375 6.0625 C12.17567149 3.93363522 12.17567149 3.93363522 9 3 C9 3.66 9 4.32 9 5 C10.2684375 5.2475 10.2684375 5.2475 11.5625 5.5 C16.89190381 7.82555803 20.24026389 12.09699584 23.2265625 17.0234375 C24.4379918 20.11931239 23.61354097 22.80958694 23 26 C22.67 26 22.34 26 22 26 C21.84144531 25.34773438 21.68289062 24.69546875 21.51953125 24.0234375 C19.73859243 17.35229651 17.88863563 12.31216172 11.6875 8.625 C11.130625 8.41875 10.57375 8.2125 10 8 C9.67 8.66 9.34 9.32 9 10 C8.62875 9.05125 8.2575 8.1025 7.875 7.125 C6.26004095 3.74446192 6.26004095 3.74446192 2.8125 2.625 C1.884375 2.41875 0.95625 2.2125 0 2 C0 1.34 0 0.68 0 0 Z " fill="#D8B3B5" transform="translate(45,2)"/>
<path d="M0 0 C0.33 0 0.66 0 1 0 C1 2.97 1 5.94 1 9 C3.31 9 5.62 9 8 9 C7.360625 9.28875 6.72125 9.5775 6.0625 9.875 C3.84793921 10.82823451 3.84793921 10.82823451 3 13 C3.78503906 12.93039063 4.57007813 12.86078125 5.37890625 12.7890625 C15.03225755 12.29158918 15.03225755 12.29158918 19.125 15.75 C22.79504725 19.36527042 24.11512943 22.90529595 24.875 27.9375 C25.72864207 32.30198576 26.49299497 35.03253421 30 38 C32.942145 39.25003052 35.91041078 40.18799258 39 41 C39 41.33 39 41.66 39 42 C33.2799241 42.45760607 30.44703273 41.63848132 26 38 C23.02106976 34.73491637 22.3918417 31.8697602 21.625 27.5625 C20.75576379 23.61102313 20.10720094 21.16395438 17.875 17.75 C13.99032847 15.38541733 10.48615482 15.10751134 6 15 C6 15.33 6 15.66 6 16 C7.98 16.33 9.96 16.66 12 17 C11.01 17.66 10.02 18.32 9 19 C9.66 19.66 10.32 20.32 11 21 C6.73709821 20.52634425 4.78451042 18.07761678 2 15 C0.02130559 12.03195838 -0.34161439 10.90215354 -0.6875 7.5 C-0.77386719 6.7265625 -0.86023437 5.953125 -0.94921875 5.15625 C-1 3 -1 3 0 0 Z " fill="#CDA0A2" transform="translate(11,47)"/>
<path d="M0 0 C0.99 0.33 1.98 0.66 3 1 C2.21625 1.5775 1.4325 2.155 0.625 2.75 C-3.42817982 6.22415413 -4.15079228 9.18313942 -4.8125 14.375 C-5.73963741 19.75814666 -6.90316888 22.36871787 -11 26 C-15.05589501 27.94344969 -17.68830791 28.26814473 -22 27 C-22 26.67 -22 26.34 -22 26 C-21.39671875 25.91363281 -20.7934375 25.82726562 -20.171875 25.73828125 C-19.37265625 25.59777344 -18.5734375 25.45726563 -17.75 25.3125 C-16.96109375 25.18488281 -16.1721875 25.05726562 -15.359375 24.92578125 C-12.05929819 23.63088356 -10.88819852 21.97422119 -9 19 C-8.06967083 15.83693362 -8.06967083 15.83693362 -7.5625 12.5 C-6.43903459 7.01301976 -5.50046486 4.316132 -1 1 C-0.67 0.67 -0.34 0.34 0 0 Z " fill="#D2ABAD" transform="translate(67,61)"/>
<path d="M0 0 C0.33 0 0.66 0 1 0 C1 2.31 1 4.62 1 7 C2.2684375 7.2475 2.2684375 7.2475 3.5625 7.5 C8.64444487 9.71757594 12.74398051 13.84506954 14.82421875 19.0703125 C15 21 15 21 13 24 C12.649375 22.80375 12.29875 21.6075 11.9375 20.375 C10.06263352 15.5158277 7.56572872 12.54444257 3 10 C-0.95067216 8.69133985 -4.91169578 7.76529833 -9 7 C-8.67 5.02 -8.34 3.04 -8 1 C-7.01 2.32 -6.02 3.64 -5 5 C-4.34 3.68 -3.68 2.36 -3 1 C-3 2.65 -3 4.3 -3 6 C-2.01 6 -1.02 6 0 6 C0 4.02 0 2.04 0 0 Z " fill="#CB9EA0" transform="translate(72,24)"/>
<path d="M0 0 C0.33 0 0.66 0 1 0 C1 2.97 1 5.94 1 9 C3.31 9 5.62 9 8 9 C7.360625 9.28875 6.72125 9.5775 6.0625 9.875 C3.84793921 10.82823451 3.84793921 10.82823451 3 13 C6.3 13 9.6 13 13 13 C13 13.33 13 13.66 13 14 C10.69 14.33 8.38 14.66 6 15 C6 15.33 6 15.66 6 16 C7.98 16.33 9.96 16.66 12 17 C11.01 17.66 10.02 18.32 9 19 C9.66 19.66 10.32 20.32 11 21 C6.73709821 20.52634425 4.78451042 18.07761678 2 15 C0.02130559 12.03195838 -0.34161439 10.90215354 -0.6875 7.5 C-0.77386719 6.7265625 -0.86023437 5.953125 -0.94921875 5.15625 C-1 3 -1 3 0 0 Z " fill="#C48F91" transform="translate(11,47)"/>
<path d="M0 0 C0.33 0 0.66 0 1 0 C1.16435547 1.03060547 1.16435547 1.03060547 1.33203125 2.08203125 C1.49058594 2.98308594 1.64914063 3.88414063 1.8125 4.8125 C1.96332031 5.70582031 2.11414062 6.59914063 2.26953125 7.51953125 C3.06684211 10.22697723 3.75383117 11.32627711 6 13 C9.38335341 13.43191746 11.28211679 13.41876521 14.25 11.6875 C16.20781904 9.92000675 16.20781904 9.92000675 18 7 C18.33 7.99 18.66 8.98 19 10 C15.83636364 14.58181818 15.83636364 14.58181818 13 16 C8.96009652 16.38112297 6.70678033 16.4240682 3.1875 14.3125 C0.81929635 11.80897043 -0.22106448 10.34942276 -1 7 C-0.625 3.1875 -0.625 3.1875 0 0 Z " fill="#CC9FA1" transform="translate(38,69)"/>
<path d="M0 0 C0.66 0 1.32 0 2 0 C2.09796875 0.65226562 2.1959375 1.30453125 2.296875 1.9765625 C3.24090702 7.49426688 4.20145849 11.68814207 8 16 C10.27426112 17.56508292 12.51870623 18.75935311 15 20 C15 20.33 15 20.66 15 21 C11.60309294 20.93206186 8.97006258 20.79269222 6.26953125 18.5859375 C1.98325676 13.78107672 0 9.534314 0 3 C-0.99 2.67 -1.98 2.34 -3 2 C-2.01 2 -1.02 2 0 2 C0 1.34 0 0.68 0 0 Z " fill="#D4AEB0" transform="translate(29,71)"/>
<path d="M0 0 C0.99 0.33 1.98 0.66 3 1 C1.8553125 1.8971875 1.8553125 1.8971875 0.6875 2.8125 C-3.43528243 5.84861184 -3.43528243 5.84861184 -5.51171875 10.26171875 C-5.59873047 11.46248047 -5.59873047 11.46248047 -5.6875 12.6875 C-5.78611328 13.89986328 -5.78611328 13.89986328 -5.88671875 15.13671875 C-5.92410156 15.75160156 -5.96148438 16.36648437 -6 17 C-2.535 16.505 -2.535 16.505 1 16 C1 16.66 1 17.32 1 18 C-2.4342662 18.85856655 -4.61682513 18.97591583 -8 18 C-8.91473744 9.58102767 -8.91473744 9.58102767 -6.734375 5.8125 C-4.66013924 3.39591465 -2.86400723 1.43200362 0 0 Z " fill="#D2ABAD" transform="translate(23,38)"/>
<path d="M0 0 C0.33 0.99 0.66 1.98 1 3 C0.48050781 3.25652344 -0.03898437 3.51304688 -0.57421875 3.77734375 C-6.47908868 7.01901911 -9.7035923 10.62996473 -12 17 C-12.62335101 20.34004494 -12.92204266 23.60531223 -13 27 C-13.33 27 -13.66 27 -14 27 C-14.36801422 18.5765634 -14.47616657 12.94591881 -8.6875 6.375 C-5.90308382 3.91435314 -3.14084225 1.97215676 0 0 Z " fill="#C9989A" transform="translate(21,30)"/>
<path d="M0 0 C0.33 0.99 0.66 1.98 1 3 C0.0925 3.12375 -0.815 3.2475 -1.75 3.375 C-5.63586729 4.11082904 -5.63586729 4.11082904 -9 6 C-10.28254644 8.53770003 -10.28254644 8.53770003 -11 11 C-9.68 10.34 -8.36 9.68 -7 9 C-7 9.99 -7 10.98 -7 12 C-7.639375 12.103125 -8.27875 12.20625 -8.9375 12.3125 C-9.9584375 12.6528125 -9.9584375 12.6528125 -11 13 C-11.33 13.99 -11.66 14.98 -12 16 C-13.32244614 8.90687978 -13.32244614 8.90687978 -12 5.1875 C-8.71103668 1.59019637 -4.8525947 0 0 0 Z " fill="#D4AFB0" transform="translate(69,51)"/>
<path d="M0 0 C2.5625 -0.5 2.5625 -0.5 6 0 C9.78368439 3.29016034 13.15375496 7.30046716 15 12 C14.625 15.75 14.625 15.75 14 19 C13.67 19 13.34 19 13 19 C12.84144531 18.34773438 12.68289062 17.69546875 12.51953125 17.0234375 C10.73859243 10.35229651 8.88863563 5.31216172 2.6875 1.625 C2.130625 1.41875 1.57375 1.2125 1 1 C0.67 1.66 0.34 2.32 0 3 C0 2.01 0 1.02 0 0 Z " fill="#DBBCBD" transform="translate(54,9)"/>
<path d="M0 0 C3.375 0.25 3.375 0.25 7 1 C8.5 2.875 8.5 2.875 9 5 C8.67 5.99 8.34 6.98 8 8 C6.35 7.67 4.7 7.34 3 7 C3 6.01 3 5.02 3 4 C1.02 4.99 1.02 4.99 -1 6 C-1.33 5.01 -1.66 4.02 -2 3 C-1.34 2.01 -0.68 1.02 0 0 Z " fill="#D6B3B4" transform="translate(66,42)"/>
<path d="M0 0 C-0.556875 0.4125 -1.11375 0.825 -1.6875 1.25 C-2.8321875 2.11625 -2.8321875 2.11625 -4 3 C-4.86625 3.639375 -5.7325 4.27875 -6.625 4.9375 C-10.46454432 8.27184112 -11.23143397 11.26483034 -11.625 16.25 C-11.73714844 17.58804688 -11.73714844 17.58804688 -11.8515625 18.953125 C-11.90054687 19.62859375 -11.94953125 20.3040625 -12 21 C-12.33 21 -12.66 21 -13 21 C-14.58517555 11.31664499 -14.58517555 11.31664499 -12.5 6.625 C-4.69879518 -1.56626506 -4.69879518 -1.56626506 0 0 Z " fill="#D1A9AA" transform="translate(25,35)"/>
<path d="M0 0 C1.66666667 0 3.33333333 0 5 0 C5 0.99 5 1.98 5 3 C6.65 3 8.3 3 10 3 C9.67 4.65 9.34 6.3 9 8 C7.68 7.67 6.36 7.34 5 7 C5 6.34 5 5.68 5 5 C3.35 5.33 1.7 5.66 0 6 C0 4.02 0 2.04 0 0 Z " fill="#C59294" transform="translate(64,46)"/>
<path d="M0 0 C0.79921875 0.00902344 1.5984375 0.01804688 2.421875 0.02734375 C3.02515625 0.03894531 3.6284375 0.05054688 4.25 0.0625 C3.09023123 5.20165885 3.09023123 5.20165885 0.25 7.0625 C-2.9375 6.75 -2.9375 6.75 -5.75 6.0625 C-5.75 5.7325 -5.75 5.4025 -5.75 5.0625 C-3.77 4.4025 -1.79 3.7425 0.25 3.0625 C-2.39 3.0625 -5.03 3.0625 -7.75 3.0625 C-8.08 2.4025 -8.41 1.7425 -8.75 1.0625 C-5.75519083 0.1901588 -3.11424089 -0.04579766 0 0 Z " fill="#C79395" transform="translate(77.75,58.9375)"/>
<path d="M0 0 C1.2065625 0.0309375 1.2065625 0.0309375 2.4375 0.0625 C1.88021087 3.40623475 1.08576111 6.09562999 -0.5625 9.0625 C-1.2225 9.0625 -1.8825 9.0625 -2.5625 9.0625 C-2.5625 8.4025 -2.5625 7.7425 -2.5625 7.0625 C-3.2225 7.0625 -3.8825 7.0625 -4.5625 7.0625 C-3.5234375 0.0859375 -3.5234375 0.0859375 0 0 Z " fill="#D4ACAD" transform="translate(24.5625,42.9375)"/>
<path d="M0 0 C0.99 0.33 1.98 0.66 3 1 C2.566875 1.88751953 2.566875 1.88751953 2.125 2.79296875 C-0.71380394 8.6202246 -0.71380394 8.6202246 -1 15 C-1.99 15 -2.98 15 -4 15 C-3.40546697 4.44191344 -3.40546697 4.44191344 0 0 Z " fill="#D9B6B7" transform="translate(29,15)"/>
<path d="M0 0 C2.65877957 0.36672822 3.79835472 0.79088638 5.6875 2.75 C7.18653147 5.31976823 7.78766485 7.02730789 8 10 C7.0625 13.3125 7.0625 13.3125 6 16 C5.01 15.67 4.02 15.34 3 15 C3.66 14.67 4.32 14.34 5 14 C5.50684425 8.67813538 4.16622086 6.22162781 1 2 C0.67 1.34 0.34 0.68 0 0 Z " fill="#D8B9BA" transform="translate(57,15)"/>
<path d="M0 0 C1.66611905 -0.042721 3.33382885 -0.04063832 5 0 C6 1 6 1 6.0625 3.5625 C6.041875 4.366875 6.02125 5.17125 6 6 C4.02 6.99 4.02 6.99 2 8 C0.68 6.68 -0.64 5.36 -2 4 C-1.34 2.68 -0.68 1.36 0 0 Z M1 1 C1 2.32 1 3.64 1 5 C1.99 5 2.98 5 4 5 C3.67 3.68 3.34 2.36 3 1 C2.34 1 1.68 1 1 1 Z " fill="#D3ADAF" transform="translate(45,6)"/>
<path d="M0 0 C5.02833307 1.43666659 7.16658908 3.74988363 10 8 C9.8125 10.875 9.8125 10.875 9 13 C8.7525 12.443125 8.505 11.88625 8.25 11.3125 C5.91513284 6.99299576 3.05926394 3.75450053 -1 1 C-0.67 0.67 -0.34 0.34 0 0 Z " fill="#D6B3B4" transform="translate(70,38)"/>
<path d="M0 0 C0.721875 0.103125 1.44375 0.20625 2.1875 0.3125 C2.5175 0.9725 2.8475 1.6325 3.1875 2.3125 C2.115 2.51875 1.0425 2.725 -0.0625 2.9375 C-4.57690197 4.59278072 -5.53611049 6.1812746 -7.8125 10.3125 C-8.4725 11.3025 -9.1325 12.2925 -9.8125 13.3125 C-10.8125 10.3125 -10.8125 10.3125 -9.6875 7.9375 C-4.36422414 0.48491379 -4.36422414 0.48491379 0 0 Z " fill="#D4AFB1" transform="translate(40.8125,11.6875)"/>
<path d="M0 0 C0.66 0.33 1.32 0.66 2 1 C0.60870061 5.86954788 -1.86667254 8.16340273 -6 11 C-8.875 11.3125 -8.875 11.3125 -11 11 C-10.443125 10.5875 -9.88625 10.175 -9.3125 9.75 C-8.549375 9.1725 -7.78625 8.595 -7 8 C-6.13375 7.360625 -5.2675 6.72125 -4.375 6.0625 C-2.10772409 4.09354987 -1.08240104 2.75520264 0 0 Z " fill="#D1A7A9" transform="translate(62,81)"/>
<path d="M0 0 C0.33 0 0.66 0 1 0 C1.03738281 0.71285156 1.07476562 1.42570312 1.11328125 2.16015625 C1.52095082 8.0993423 2.28662226 12.69121747 5 18 C4.01 18 3.02 18 2 18 C-2.03356644 12.19166432 -0.908709 6.76605015 0 0 Z " fill="#DEC0C1" transform="translate(8,47)"/>
<path d="M0 0 C1.485 0.99 1.485 0.99 3 2 C3.29296875 5.0390625 3.29296875 5.0390625 3.1875 8.625 C3.16042969 9.81351563 3.13335937 11.00203125 3.10546875 12.2265625 C3.07066406 13.14179687 3.03585938 14.05703125 3 15 C0.22957891 12.22957891 0.60203894 10.23466195 0.375 6.375 C0.30023438 5.18648437 0.22546875 3.99796875 0.1484375 2.7734375 C0.09945312 1.85820313 0.05046875 0.94296875 0 0 Z " fill="#D1AAAB" transform="translate(81,43)"/>
<path d="M0 0 C6.45027515 0.26327654 9.47915791 2.50664023 14 7 C13.34 7.66 12.68 8.32 12 9 C11.319375 8.236875 10.63875 7.47375 9.9375 6.6875 C6.64101475 3.67156669 4.13693165 2.54120983 0 1 C0 0.67 0 0.34 0 0 Z " fill="#CB999B" transform="translate(22,56)"/>
<path d="M0 0 C0.66 0.33 1.32 0.66 2 1 C0.75406918 4.84162002 -0.33391703 7.1145859 -4 9 C-6.75 8.6875 -6.75 8.6875 -9 8 C-8.4225 7.731875 -7.845 7.46375 -7.25 7.1875 C-3.5421173 5.23056191 -1.35687262 4.07061787 0 0 Z " fill="#D5AEB0" transform="translate(55,76)"/>
<path d="M0 0 C2.72200894 3.1756771 4.79925674 5.96113632 6 10 C5.67 10.66 5.34 11.32 5 12 C4.01 11.67 3.02 11.34 2 11 C2.66 11 3.32 11 4 11 C2.84826645 8.53199953 1.95216435 6.95216435 0 5 C-0.6875 2.9375 -0.6875 2.9375 -1 1 C-0.67 0.67 -0.34 0.34 0 0 Z " fill="#D4AFB1" transform="translate(30,40)"/>
<path d="M0 0 C3.53600465 1.91135386 5.78972846 3.62642766 8 7 C7.34 8.32 6.68 9.64 6 11 C5.38125 9.63875 5.38125 9.63875 4.75 8.25 C3.10949282 5.20334382 1.55281639 3.28873194 -1 1 C-0.67 0.67 -0.34 0.34 0 0 Z " fill="#D6B1B3" transform="translate(53,15)"/>
<path d="M0 0 C0.99 0.33 1.98 0.66 3 1 C-2.41628959 5.66402715 -2.41628959 5.66402715 -6 6 C-8.75 5.5625 -8.75 5.5625 -11 5 C-11 4.67 -11 4.34 -11 4 C-10.37351563 3.87882812 -9.74703125 3.75765625 -9.1015625 3.6328125 C-8.28429688 3.46523437 -7.46703125 3.29765625 -6.625 3.125 C-5.81289063 2.96257812 -5.00078125 2.80015625 -4.1640625 2.6328125 C-1.81326077 2.13341068 -1.81326077 2.13341068 0 0 Z " fill="#D6AFB0" transform="translate(56,83)"/>
<path d="M0 0 C0.33 0.99 0.66 1.98 1 3 C-0.29096781 3.81360995 -1.58279875 4.62585046 -2.875 5.4375 C-3.59429688 5.88996094 -4.31359375 6.34242187 -5.0546875 6.80859375 C-7 8 -7 8 -9 9 C-8.63594751 6.29561004 -8.31857318 5.25593617 -6.15234375 3.515625 C-5.42144531 3.09796875 -4.69054687 2.6803125 -3.9375 2.25 C-3.20402344 1.82203125 -2.47054688 1.3940625 -1.71484375 0.953125 C-1.14894531 0.63859375 -0.58304688 0.3240625 0 0 Z " fill="#D4ADAE" transform="translate(21,30)"/>
<path d="M0 0 C0.66 0 1.32 0 2 0 C0.72278474 4.99275057 -1.17330957 7.57611908 -5 11 C-5.66 10.67 -6.32 10.34 -7 10 C-6.57847656 9.52949219 -6.15695313 9.05898438 -5.72265625 8.57421875 C-5.17480469 7.95160156 -4.62695312 7.32898437 -4.0625 6.6875 C-3.51722656 6.07261719 -2.97195312 5.45773438 -2.41015625 4.82421875 C-0.79918441 2.94758042 -0.79918441 2.94758042 0 0 Z " fill="#CFA4A6" transform="translate(64,39)"/>
<path d="M0 0 C0.66 0.66 1.32 1.32 2 2 C0.47005208 3.23697917 -1.05989583 4.47395833 -2.58984375 5.7109375 C-4.13266437 6.9666391 -4.13266437 6.9666391 -5 9 C-5.66 9 -6.32 9 -7 9 C-5.64978174 4.58110387 -3.73884332 2.65654657 0 0 Z " fill="#D4AEB0" transform="translate(41,15)"/>
<path d="M0 0 C1.98 0.99 3.96 1.98 6 3 C3 4 3 4 0 3 C-0.33 4.98 -0.66 6.96 -1 9 C-1.33 9 -1.66 9 -2 9 C-2.125 5.625 -2.125 5.625 -2 2 C-1.34 1.34 -0.68 0.68 0 0 Z " fill="#C79698" transform="translate(53,11)"/>
<path d="M0 0 C1.66666667 0 3.33333333 0 5 0 C5 1.65 5 3.3 5 5 C3.35 5.33 1.7 5.66 0 6 C0 4.02 0 2.04 0 0 Z " fill="#AE6669" transform="translate(64,46)"/>
<path d="M0 0 C0.99 0 1.98 0 3 0 C3 0.66 3 1.32 3 2 C-2.37305699 2.96891192 -2.37305699 2.96891192 -5 3 C-7 1.5625 -7 1.5625 -8 0 C-5.13411489 -1.43294255 -3.09628564 -0.56870553 0 0 Z " fill="#C49091" transform="translate(41,38)"/>
<path d="M0 0 C0.99 0 1.98 0 3 0 C2.67 0.99 2.34 1.98 2 3 C-1.66305234 3.74926071 -4.42355152 4.2380014 -8 3 C-8 2.34 -8 1.68 -8 1 C-6.865625 1.020625 -5.73125 1.04125 -4.5625 1.0625 C-1.18424326 1.41577477 -1.18424326 1.41577477 0 0 Z " fill="#C28B8E" transform="translate(59,37)"/>
<path d="M0 0 C2.64 0 5.28 0 8 0 C7.01 0.495 7.01 0.495 6 1 C6 2.98 6 4.96 6 7 C3.525 6.01 3.525 6.01 1 5 C1.99 4.67 2.98 4.34 4 4 C4 3.01 4 2.02 4 1 C2.68 0.67 1.36 0.34 0 0 Z " fill="#C0878A" transform="translate(24,34)"/>
<path d="M0 0 C-2.79908133 2.79908133 -5.13081763 2.72362983 -9 3 C-9.66 2.34 -10.32 1.68 -11 1 C-3.375 -1.125 -3.375 -1.125 0 0 Z " fill="#D5B0B2" transform="translate(77,71)"/>
<path d="M0 0 C2.12038635 2.61514317 4.13091744 5.19637616 6 8 C5.34 8.66 4.68 9.32 4 10 C3.13342884 8.90554162 2.28207276 7.79902219 1.4375 6.6875 C0.96183594 6.07261719 0.48617187 5.45773438 -0.00390625 4.82421875 C-0.33261719 4.22222656 -0.66132812 3.62023437 -1 3 C-0.67 2.01 -0.34 1.02 0 0 Z " fill="#D8B4B5" transform="translate(49,22)"/>
<path d="M0 0 C2.61973266 2.61973266 2.70813314 4.35166422 3 8 C2.015625 10.1953125 2.015625 10.1953125 1 12 C0.63896464 10.18885568 0.28634496 8.37603177 -0.0625 6.5625 C-0.25972656 5.55316406 -0.45695312 4.54382813 -0.66015625 3.50390625 C-0.77230469 2.67761719 -0.88445312 1.85132812 -1 1 C-0.67 0.67 -0.34 0.34 0 0 Z " fill="#DABBBD" transform="translate(70,16)"/>
<path d="M0 0 C0.66 0 1.32 0 2 0 C2 3.3 2 6.6 2 10 C0 7 0 7 0 3 C-0.99 2.67 -1.98 2.34 -3 2 C-2.01 2 -1.02 2 0 2 C0 1.34 0 0.68 0 0 Z " fill="#C69496" transform="translate(29,71)"/>
<path d="M0 0 C-2.39509338 2.89932357 -4.31245243 3.50168276 -8 4 C-8 3.01 -8 2.02 -8 1 C-3.375 -1.125 -3.375 -1.125 0 0 Z " fill="#D5B0B1" transform="translate(77,66)"/>
<path d="M0 0 C2.625 -0.1875 2.625 -0.1875 5 0 C4.67 0.66 4.34 1.32 4 2 C3.34 1.67 2.68 1.34 2 1 C2 1.66 2 2.32 2 3 C2.66 3.33 3.32 3.66 4 4 C2.35 4.66 0.7 5.32 -1 6 C-1.33 5.01 -1.66 4.02 -2 3 C-1.34 2.01 -0.68 1.02 0 0 Z " fill="#C8979A" transform="translate(66,42)"/>
<path d="M0 0 C0.33 0 0.66 0 1 0 C0.67 4.95 0.34 9.9 0 15 C-0.33 15 -0.66 15 -1 15 C-1.22304441 13.25181409 -1.4278645 11.50129677 -1.625 9.75 C-1.74101562 8.77546875 -1.85703125 7.8009375 -1.9765625 6.796875 C-2.00112537 3.86570607 -1.5312717 2.45471036 0 0 Z " fill="#E1C7C8" transform="translate(13,41)"/>
<path d="M0 0 C1.32 0.66 2.64 1.32 4 2 C3.34 2 2.68 2 2 2 C1.87625 3.134375 1.7525 4.26875 1.625 5.4375 C1.41875 6.613125 1.2125 7.78875 1 9 C0.01 9.495 0.01 9.495 -1 10 C-0.67 6.7 -0.34 3.4 0 0 Z " fill="#C38F91" transform="translate(64,72)"/>
<path d="M0 0 C0.33 0 0.66 0 1 0 C1 2.97 1 5.94 1 9 C-0.98 9.99 -0.98 9.99 -3 11 C-2.01 7.37 -1.02 3.74 0 0 Z " fill="#C9999B" transform="translate(60,72)"/>
<path d="M0 0 C0.66 0.33 1.32 0.66 2 1 C1.34 3.64 0.68 6.28 0 9 C-1.125 7.3125 -1.125 7.3125 -2 5 C-1.125 2.25 -1.125 2.25 0 0 Z " fill="#D9B7B8" transform="translate(24,15)"/>
</svg>
