<?xml version="1.0" encoding="UTF-8"?>
<svg version="1.1" xmlns="http://www.w3.org/2000/svg" width="50" height="10">
<path d="M0 0 C3.77702297 2.63513231 6.60374735 5.7074947 8.6875 9.875 C20.9531523 10.60619988 33.17527766 11.03950335 45.46159363 11.10914612 C47.16091304 11.12201753 48.86022962 11.13526805 50.55954343 11.14885849 C55.16843617 11.1846479 59.77735019 11.21515121 64.38628662 11.24469459 C69.37920581 11.27765936 74.37208711 11.31566395 79.36497498 11.35302734 C87.99540086 11.4169354 96.62584411 11.47771693 105.2563076 11.53631783 C117.73419897 11.62104739 130.21205231 11.71058089 142.68990175 11.80125164 C162.93899655 11.94826356 183.18811655 12.09144085 203.43725586 12.23217773 C223.0964503 12.36882263 242.75563051 12.50729145 262.41479492 12.64819336 C263.62849737 12.65689162 264.84219982 12.66558989 266.09268113 12.67455173 C272.18204036 12.71820364 278.27139934 12.7618912 284.36075819 12.80559647 C334.8029669 13.16759027 385.2452182 13.52334865 435.6875 13.875 C435.6875 17.505 435.6875 21.135 435.6875 24.875 C404.63757578 24.94899732 373.59197212 24.75951877 342.54318237 24.50460815 C334.05688332 24.43494273 325.57055841 24.3687639 317.08422852 24.30297852 C314.12953172 24.28003259 311.1748351 24.25706324 308.22013855 24.23408508 C307.48203015 24.22834549 306.74392174 24.2226059 305.98344642 24.21669239 C297.65481256 24.15187856 289.32618445 24.08634078 280.99755859 24.02050781 C280.24075644 24.01452658 279.48395429 24.00854535 278.70421875 24.00238287 C268.13352894 23.91877274 257.56285219 23.83363328 246.99218178 23.74760962 C214.07285767 23.47992214 181.15354169 23.23062562 148.23370361 23.03460693 C145.38871219 23.01759869 142.54372119 23.00052243 139.69873047 22.98339844 C138.99683185 22.97918617 138.29493322 22.9749739 137.57176495 22.97063398 C126.88381446 22.90604274 116.19606945 22.82483825 105.50830078 22.73535156 C93.22097401 22.63248535 80.93374942 22.55115499 68.64610577 22.49655628 C62.32803341 22.46788685 56.01041474 22.42931021 49.69259644 22.36495972 C43.89257758 22.30616931 38.09310305 22.27501021 32.292799 22.26623154 C30.18284458 22.25810231 28.07290124 22.23965716 25.96313667 22.21020889 C23.10297489 22.17178822 20.24511845 22.1700895 17.38476562 22.17797852 C16.552751 22.15797507 15.72073637 22.13797163 14.86350918 22.11736202 C12.27682017 22.08385058 12.27682017 22.08385058 8.6875 22.875 C6.22308326 25.66959366 6.22308326 25.66959366 4.6875 28.875 C-0.3735877 33.44232305 -4.17973828 34.18234392 -10.8125 34.0859375 C-15.89538551 33.65706904 -18.56903271 31.63536427 -22.0625 28.0625 C-25.87636662 22.65952229 -26.78454281 18.50570316 -25.8515625 12.05078125 C-24.48116848 6.51955323 -20.86668478 3.02789715 -16.3125 -0.125 C-10.91330143 -1.92473286 -5.37692735 -1.82612627 0 0 Z M-13.125 10.9375 C-15.662879 13.74931022 -15.662879 13.74931022 -15.375 17.5 C-14.56182579 20.84029109 -14.56182579 20.84029109 -12.625 22.875 C-9.44082007 24.25194267 -7.60325199 23.855224 -4.3125 22.875 C-2.3125 21.875 -2.3125 21.875 -1.3125 19.875 C-0.64573122 16.41750051 -0.64573122 16.41750051 -1.3125 12.875 C-3.43935929 10.3232714 -3.43935929 10.3232714 -6.3125 8.875 C-10.35618027 8.48075756 -10.35618027 8.48075756 -13.125 10.9375 Z " fill="#FDD304" transform="translate(33.3125,7.125)"/>
</svg>
